<svg width="81" height="17" viewBox="0 0 81 17" fill="none" xmlns="http://www.w3.org/2000/svg">
<path fill-rule="evenodd" clip-rule="evenodd" d="M11.9413 11.1147C11.5703 11.1147 11.2695 10.8623 11.2695 10.5508V4.10795C11.2695 3.79653 11.5703 3.54406 11.9413 3.54406H17.7306C18.1015 3.54406 18.4023 3.79653 18.4023 4.10795V7.87092C17.0176 7.99169 15.9383 8.9751 15.9383 10.1699C15.9383 10.5063 16.024 10.8262 16.1781 11.1147H11.9413ZM18.391 8.43254L18.4689 8.30432L18.469 8.30442L18.3912 8.43252L18.391 8.43254ZM16.8401 10.9863C16.6874 10.7426 16.6009 10.465 16.6009 10.1699C16.6009 9.28563 17.3791 8.55433 18.391 8.43254L16.8401 10.9863ZM16.8402 10.9864L16.7622 11.1148H16.7621L16.8401 10.9863L16.8402 10.9864ZM16.8402 10.9864C16.8915 11.0683 16.9503 11.1464 17.0159 11.22C17.0194 11.2237 17.0228 11.2275 17.0261 11.2314C17.4082 11.6535 18.0112 11.9252 18.6898 11.9252C19.8432 11.9252 20.7787 11.1395 20.7787 10.1699C20.7787 9.211 19.8635 8.43204 18.7276 8.41514L18.7254 8.41511H18.7254C18.7109 8.41489 18.7002 8.41472 18.6898 8.41472C18.5884 8.41472 18.4887 8.42079 18.3912 8.43252L16.8402 10.9864ZM19.0649 4.10795V7.8799C20.4073 8.03362 21.4413 9.00038 21.4413 10.1699C21.4413 11.4463 20.2096 12.4814 18.6898 12.4814C17.8519 12.4814 17.1017 12.1665 16.5975 11.671H11.9413C11.2043 11.671 10.6069 11.1695 10.6069 10.5508V4.10795C10.6069 3.48929 11.2043 2.98779 11.9413 2.98779H17.7306C18.4675 2.98779 19.0649 3.48929 19.0649 4.10795ZM18.7868 10.7685C18.6763 10.8841 18.4771 10.9067 18.334 10.8196L17.5503 10.343C17.4022 10.2529 17.3691 10.079 17.4764 9.95456C17.5838 9.83017 17.7909 9.80239 17.9391 9.89251L18.4674 10.2138L19.3207 9.32078C19.4352 9.20096 19.6437 9.18175 19.7865 9.27787C19.9292 9.37399 19.9521 9.54904 19.8376 9.66886L18.7868 10.7685ZM11.9429 4.82343C11.9429 4.97704 12.0912 5.10156 12.2742 5.10156H14.2515C14.4344 5.10156 14.5828 4.97704 14.5828 4.82343C14.5828 4.66982 14.4344 4.5453 14.2515 4.5453H12.2742C12.0912 4.5453 11.9429 4.66982 11.9429 4.82343ZM12.2742 6.3252C12.0912 6.3252 11.9429 6.20067 11.9429 6.04706C11.9429 5.89345 12.0912 5.76893 12.2742 5.76893H14.2515C14.4344 5.76893 14.5828 5.89345 14.5828 6.04706C14.5828 6.20067 14.4344 6.3252 14.2515 6.3252H12.2742ZM11.9429 7.27118C11.9429 7.42479 12.0912 7.54932 12.2742 7.54932H14.2515C14.4344 7.54932 14.5828 7.42479 14.5828 7.27118C14.5828 7.11757 14.4344 6.99305 14.2515 6.99305H12.2742C12.0912 6.99305 11.9429 7.11757 11.9429 7.27118ZM15.4605 5.10156C15.2775 5.10156 15.1292 4.97704 15.1292 4.82343C15.1292 4.66982 15.2775 4.5453 15.4605 4.5453H17.4378C17.6208 4.5453 17.7691 4.66982 17.7691 4.82343C17.7691 4.97704 17.6208 5.10156 17.4378 5.10156H15.4605ZM15.1292 6.04706C15.1292 6.20067 15.2775 6.3252 15.4605 6.3252H17.4378C17.6208 6.3252 17.7691 6.20067 17.7691 6.04706C17.7691 5.89345 17.6208 5.76893 17.4378 5.76893H15.4605C15.2775 5.76893 15.1292 5.89345 15.1292 6.04706ZM15.4605 7.54932C15.2775 7.54932 15.1292 7.42479 15.1292 7.27118C15.1292 7.11757 15.2775 6.99305 15.4605 6.99305H17.4378C17.6208 6.99305 17.7691 7.11757 17.7691 7.27118C17.7691 7.42479 17.6208 7.54932 17.4378 7.54932H15.4605ZM11.9429 8.49482C11.9429 8.64842 12.0912 8.77295 12.2742 8.77295H14.2515C14.4344 8.77295 14.5828 8.64842 14.5828 8.49482C14.5828 8.34121 14.4344 8.21668 14.2515 8.21668H12.2742C12.0912 8.21668 11.9429 8.34121 11.9429 8.49482ZM12.2742 9.99658C12.0912 9.99658 11.9429 9.87206 11.9429 9.71845C11.9429 9.56484 12.0912 9.44032 12.2742 9.44032H14.2515C14.4344 9.44032 14.5828 9.56484 14.5828 9.71845C14.5828 9.87206 14.4344 9.99658 14.2515 9.99658H12.2742Z" fill="white"/>
<path d="M31.84 10.15C31.3533 10.15 30.91 10.07 30.51 9.91C30.11 9.75 29.7667 9.51667 29.48 9.21C29.1933 8.90333 28.97 8.52667 28.81 8.08C28.6567 7.62667 28.58 7.11 28.58 6.53C28.58 5.95 28.6667 5.43667 28.84 4.99C29.02 4.53667 29.26 4.15667 29.56 3.85C29.86 3.54333 30.21 3.31 30.61 3.15C31.01 2.99 31.4367 2.91 31.89 2.91C32.1767 2.91 32.4333 2.93 32.66 2.97C32.8933 3.01 33.0933 3.05667 33.26 3.11C33.4333 3.16333 33.5733 3.21667 33.68 3.27C33.7867 3.32333 33.86 3.36333 33.9 3.39L33.62 4.19C33.56 4.15 33.4733 4.10667 33.36 4.06C33.2467 4.01333 33.1167 3.96667 32.97 3.92C32.83 3.87333 32.6733 3.83667 32.5 3.81C32.3333 3.77667 32.1633 3.76 31.99 3.76C31.6233 3.76 31.2933 3.82333 31 3.95C30.7067 4.07667 30.4567 4.26 30.25 4.5C30.0433 4.74 29.8833 5.03333 29.77 5.38C29.6633 5.72 29.61 6.10333 29.61 6.53C29.61 6.94333 29.6567 7.32 29.75 7.66C29.85 8 29.9967 8.29333 30.19 8.54C30.3833 8.78 30.6233 8.96667 30.91 9.1C31.2033 9.23333 31.5433 9.3 31.93 9.3C32.3767 9.3 32.7467 9.25333 33.04 9.16C33.3333 9.06667 33.5533 8.98333 33.7 8.91L33.95 9.71C33.9033 9.74333 33.82 9.78667 33.7 9.84C33.58 9.88667 33.43 9.93333 33.25 9.98C33.07 10.0267 32.86 10.0667 32.62 10.1C32.38 10.1333 32.12 10.15 31.84 10.15ZM39.4447 7.4C39.4447 7.81333 39.3847 8.18667 39.2647 8.52C39.1447 8.85333 38.9747 9.14 38.7547 9.38C38.5414 9.62 38.2847 9.80667 37.9847 9.94C37.6847 10.0667 37.358 10.13 37.0047 10.13C36.6514 10.13 36.3247 10.0667 36.0247 9.94C35.7247 9.80667 35.4647 9.62 35.2447 9.38C35.0314 9.14 34.8647 8.85333 34.7447 8.52C34.6247 8.18667 34.5647 7.81333 34.5647 7.4C34.5647 6.99333 34.6247 6.62333 34.7447 6.29C34.8647 5.95 35.0314 5.66 35.2447 5.42C35.4647 5.18 35.7247 4.99667 36.0247 4.87C36.3247 4.73667 36.6514 4.67 37.0047 4.67C37.358 4.67 37.6847 4.73667 37.9847 4.87C38.2847 4.99667 38.5414 5.18 38.7547 5.42C38.9747 5.66 39.1447 5.95 39.2647 6.29C39.3847 6.62333 39.4447 6.99333 39.4447 7.4ZM38.4747 7.4C38.4747 6.81333 38.3414 6.35 38.0747 6.01C37.8147 5.66333 37.458 5.49 37.0047 5.49C36.5514 5.49 36.1914 5.66333 35.9247 6.01C35.6647 6.35 35.5347 6.81333 35.5347 7.4C35.5347 7.98667 35.6647 8.45333 35.9247 8.8C36.1914 9.14 36.5514 9.31 37.0047 9.31C37.458 9.31 37.8147 9.14 38.0747 8.8C38.3414 8.45333 38.4747 7.98667 38.4747 7.4ZM40.7531 4.95C40.9665 4.89667 41.2498 4.84 41.6031 4.78C41.9565 4.72 42.3631 4.69 42.8231 4.69C43.2365 4.69 43.5798 4.75 43.8531 4.87C44.1265 4.98333 44.3431 5.14667 44.5031 5.36C44.6698 5.56667 44.7865 5.81667 44.8531 6.11C44.9198 6.40333 44.9531 6.72667 44.9531 7.08V10H44.0231V7.28C44.0231 6.96 43.9998 6.68667 43.9531 6.46C43.9131 6.23333 43.8431 6.05 43.7431 5.91C43.6431 5.77 43.5098 5.67 43.3431 5.61C43.1765 5.54333 42.9698 5.51 42.7231 5.51C42.6231 5.51 42.5198 5.51333 42.4131 5.52C42.3065 5.52667 42.2031 5.53667 42.1031 5.55C42.0098 5.55667 41.9231 5.56667 41.8431 5.58C41.7698 5.59333 41.7165 5.60333 41.6831 5.61V10H40.7531V4.95ZM47.3653 4.8H49.3353V5.58H47.3653V7.98C47.3653 8.24 47.3853 8.45667 47.4253 8.63C47.4653 8.79667 47.5253 8.93 47.6053 9.03C47.6853 9.12333 47.7853 9.19 47.9053 9.23C48.0253 9.27 48.1653 9.29 48.3253 9.29C48.6053 9.29 48.8286 9.26 48.9953 9.2C49.1686 9.13333 49.2886 9.08667 49.3553 9.06L49.5353 9.83C49.442 9.87667 49.2786 9.93333 49.0453 10C48.812 10.0733 48.5453 10.11 48.2453 10.11C47.892 10.11 47.5986 10.0667 47.3653 9.98C47.1386 9.88667 46.9553 9.75 46.8153 9.57C46.6753 9.39 46.5753 9.17 46.5153 8.91C46.462 8.64333 46.4353 8.33667 46.4353 7.99V3.35L47.3653 3.19V4.8ZM52.4388 4.69C52.5188 4.69 52.6088 4.69667 52.7088 4.71C52.8154 4.71667 52.9188 4.73 53.0188 4.75C53.1188 4.76333 53.2088 4.78 53.2888 4.8C53.3754 4.81333 53.4388 4.82667 53.4788 4.84L53.3188 5.65C53.2454 5.62333 53.1221 5.59333 52.9488 5.56C52.7821 5.52 52.5654 5.5 52.2988 5.5C52.1254 5.5 51.9521 5.52 51.7788 5.56C51.6121 5.59333 51.5021 5.61667 51.4488 5.63V10H50.5188V5.02C50.7388 4.94 51.0121 4.86667 51.3388 4.8C51.6654 4.72667 52.0321 4.69 52.4388 4.69ZM56.1362 9.33C56.3562 9.33 56.5495 9.32667 56.7162 9.32C56.8895 9.30667 57.0328 9.28667 57.1462 9.26V7.71C57.0795 7.67667 56.9695 7.65 56.8162 7.63C56.6695 7.60333 56.4895 7.59 56.2762 7.59C56.1362 7.59 55.9862 7.6 55.8262 7.62C55.6728 7.64 55.5295 7.68333 55.3962 7.75C55.2695 7.81 55.1628 7.89667 55.0762 8.01C54.9895 8.11667 54.9462 8.26 54.9462 8.44C54.9462 8.77333 55.0528 9.00667 55.2662 9.14C55.4795 9.26667 55.7695 9.33 56.1362 9.33ZM56.0562 4.67C56.4295 4.67 56.7428 4.72 56.9962 4.82C57.2562 4.91333 57.4628 5.05 57.6162 5.23C57.7762 5.40333 57.8895 5.61333 57.9562 5.86C58.0228 6.1 58.0562 6.36667 58.0562 6.66V9.91C57.9762 9.92333 57.8628 9.94333 57.7162 9.97C57.5762 9.99 57.4162 10.01 57.2362 10.03C57.0562 10.05 56.8595 10.0667 56.6462 10.08C56.4395 10.1 56.2328 10.11 56.0262 10.11C55.7328 10.11 55.4628 10.08 55.2162 10.02C54.9695 9.96 54.7562 9.86667 54.5762 9.74C54.3962 9.60667 54.2562 9.43333 54.1562 9.22C54.0562 9.00667 54.0062 8.75 54.0062 8.45C54.0062 8.16333 54.0628 7.91667 54.1762 7.71C54.2962 7.50333 54.4562 7.33667 54.6562 7.21C54.8562 7.08333 55.0895 6.99 55.3562 6.93C55.6228 6.87 55.9028 6.84 56.1962 6.84C56.2895 6.84 56.3862 6.84667 56.4862 6.86C56.5862 6.86667 56.6795 6.88 56.7662 6.9C56.8595 6.91333 56.9395 6.92667 57.0062 6.94C57.0728 6.95333 57.1195 6.96333 57.1462 6.97V6.71C57.1462 6.55667 57.1295 6.40667 57.0962 6.26C57.0628 6.10667 57.0028 5.97333 56.9162 5.86C56.8295 5.74 56.7095 5.64667 56.5562 5.58C56.4095 5.50667 56.2162 5.47 55.9762 5.47C55.6695 5.47 55.3995 5.49333 55.1662 5.54C54.9395 5.58 54.7695 5.62333 54.6562 5.67L54.5462 4.9C54.6662 4.84667 54.8662 4.79667 55.1462 4.75C55.4262 4.69667 55.7295 4.67 56.0562 4.67ZM60.4708 4.8H62.4408V5.58H60.4708V7.98C60.4708 8.24 60.4908 8.45667 60.5308 8.63C60.5708 8.79667 60.6308 8.93 60.7108 9.03C60.7908 9.12333 60.8908 9.19 61.0108 9.23C61.1308 9.27 61.2708 9.29 61.4308 9.29C61.7108 9.29 61.9341 9.26 62.1008 9.2C62.2741 9.13333 62.3941 9.08667 62.4608 9.06L62.6408 9.83C62.5474 9.87667 62.3841 9.93333 62.1508 10C61.9174 10.0733 61.6508 10.11 61.3508 10.11C60.9974 10.11 60.7041 10.0667 60.4708 9.98C60.2441 9.88667 60.0608 9.75 59.9208 9.57C59.7808 9.39 59.6808 9.17 59.6208 8.91C59.5674 8.64333 59.5408 8.33667 59.5408 7.99V3.35L60.4708 3.19V4.8ZM68.0775 7.4C68.0775 7.81333 68.0175 8.18667 67.8975 8.52C67.7775 8.85333 67.6075 9.14 67.3875 9.38C67.1742 9.62 66.9175 9.80667 66.6175 9.94C66.3175 10.0667 65.9908 10.13 65.6375 10.13C65.2842 10.13 64.9575 10.0667 64.6575 9.94C64.3575 9.80667 64.0975 9.62 63.8775 9.38C63.6642 9.14 63.4975 8.85333 63.3775 8.52C63.2575 8.18667 63.1975 7.81333 63.1975 7.4C63.1975 6.99333 63.2575 6.62333 63.3775 6.29C63.4975 5.95 63.6642 5.66 63.8775 5.42C64.0975 5.18 64.3575 4.99667 64.6575 4.87C64.9575 4.73667 65.2842 4.67 65.6375 4.67C65.9908 4.67 66.3175 4.73667 66.6175 4.87C66.9175 4.99667 67.1742 5.18 67.3875 5.42C67.6075 5.66 67.7775 5.95 67.8975 6.29C68.0175 6.62333 68.0775 6.99333 68.0775 7.4ZM67.1075 7.4C67.1075 6.81333 66.9742 6.35 66.7075 6.01C66.4475 5.66333 66.0908 5.49 65.6375 5.49C65.1842 5.49 64.8242 5.66333 64.5575 6.01C64.2975 6.35 64.1675 6.81333 64.1675 7.4C64.1675 7.98667 64.2975 8.45333 64.5575 8.8C64.8242 9.14 65.1842 9.31 65.6375 9.31C66.0908 9.31 66.4475 9.14 66.7075 8.8C66.9742 8.45333 67.1075 7.98667 67.1075 7.4Z" fill="white"/>
<rect x="0.25" y="0.25" width="80.5" height="13.5" rx="6.75" stroke="#6A00A7" stroke-width="0.5"/>
</svg>
