<svg width="1920" height="155" viewBox="0 0 1920 155" fill="none" xmlns="http://www.w3.org/2000/svg">
<path d="M1920 154.891L-2.74181e-05 154.891L-1.38772e-05 -2.28102e-06L1920 0.000165571L1920 154.891Z" fill="url(#paint0_linear_373_352)"/>
<path fill-rule="evenodd" clip-rule="evenodd" d="M701.11 0C686.249 23.5073 677.647 51.3658 677.647 81.2334C677.647 107.953 684.531 133.064 696.622 154.891H1223.38C1235.47 133.064 1242.35 107.953 1242.35 81.2334C1242.35 51.3658 1233.75 23.5073 1218.89 0H701.11Z" fill="white"/>
<path d="M161.212 90.353V62.191H171.25C173.441 62.191 175.256 62.5898 176.695 63.3873C178.135 64.1849 179.212 65.2758 179.927 66.6601C180.642 68.0352 180.999 69.5844 180.999 71.3079C180.999 73.0405 180.637 74.599 179.913 75.9832C179.198 77.3583 178.116 78.4492 176.668 79.2559C175.229 80.0535 173.418 80.4523 171.236 80.4523H164.333V76.8495H170.851C172.235 76.8495 173.358 76.6112 174.22 76.1345C175.082 75.6486 175.714 74.9886 176.118 74.1543C176.521 73.3201 176.723 72.3713 176.723 71.3079C176.723 70.2445 176.521 69.3003 176.118 68.4752C175.714 67.6501 175.077 67.0038 174.206 66.5363C173.345 66.0688 172.208 65.835 170.796 65.835H165.461V90.353H161.212Z" fill="white"/>
<path d="M185.651 90.353V69.2315H189.625V72.5867H189.845C190.23 71.45 190.908 70.5562 191.88 69.9053C192.861 69.2453 193.97 68.9152 195.208 68.9152C195.464 68.9152 195.767 68.9244 196.115 68.9427C196.473 68.9611 196.752 68.984 196.954 69.0115V72.9443C196.789 72.8984 196.496 72.848 196.074 72.793C195.652 72.7288 195.231 72.6967 194.809 72.6967C193.837 72.6967 192.971 72.903 192.21 73.3155C191.458 73.7189 190.862 74.2827 190.422 75.0069C189.982 75.722 189.762 76.5378 189.762 77.4546V90.353H185.651Z" fill="white"/>
<path d="M208.653 90.7792C206.672 90.7792 204.944 90.3255 203.468 89.4179C201.993 88.5103 200.847 87.2407 200.031 85.6089C199.215 83.9771 198.807 82.0703 198.807 79.8885C198.807 77.6975 199.215 75.7815 200.031 74.1406C200.847 72.4996 201.993 71.2254 203.468 70.3178C204.944 69.4103 206.672 68.9565 208.653 68.9565C210.633 68.9565 212.361 69.4103 213.837 70.3178C215.313 71.2254 216.459 72.4996 217.274 74.1406C218.09 75.7815 218.498 77.6975 218.498 79.8885C218.498 82.0703 218.09 83.9771 217.274 85.6089C216.459 87.2407 215.313 88.5103 213.837 89.4179C212.361 90.3255 210.633 90.7792 208.653 90.7792ZM208.666 87.3278C209.95 87.3278 211.013 86.9886 211.857 86.3102C212.7 85.6318 213.323 84.7288 213.727 83.6012C214.139 82.4737 214.345 81.2315 214.345 79.8747C214.345 78.5271 214.139 77.2896 213.727 76.162C213.323 75.0252 212.7 74.1131 211.857 73.4255C211.013 72.738 209.95 72.3942 208.666 72.3942C207.374 72.3942 206.301 72.738 205.449 73.4255C204.605 74.1131 203.977 75.0252 203.565 76.162C203.161 77.2896 202.96 78.5271 202.96 79.8747C202.96 81.2315 203.161 82.4737 203.565 83.6012C203.977 84.7288 204.605 85.6318 205.449 86.3102C206.301 86.9886 207.374 87.3278 208.666 87.3278Z" fill="white"/>
<path d="M223.088 98.2735V69.2315H227.103V72.6555H227.447C227.685 72.2155 228.029 71.7067 228.478 71.1291C228.927 70.5516 229.551 70.0474 230.348 69.6165C231.146 69.1765 232.2 68.9565 233.511 68.9565C235.216 68.9565 236.738 69.3873 238.076 70.2491C239.415 71.1108 240.464 72.353 241.225 73.9756C241.995 75.5982 242.38 77.5508 242.38 79.8335C242.38 82.1161 242 84.0734 241.239 85.7051C240.478 87.3278 239.433 88.5791 238.104 89.4592C236.774 90.33 235.257 90.7655 233.552 90.7655C232.269 90.7655 231.219 90.5501 230.403 90.1192C229.596 89.6883 228.964 89.1841 228.506 88.6066C228.047 88.0291 227.694 87.5157 227.447 87.0665H227.199V98.2735H223.088ZM227.117 79.7922C227.117 81.2773 227.332 82.5791 227.763 83.6975C228.194 84.8159 228.817 85.6914 229.633 86.3239C230.449 86.9473 231.448 87.259 232.631 87.259C233.859 87.259 234.886 86.9336 235.711 86.2827C236.536 85.6226 237.159 84.7288 237.581 83.6012C238.012 82.4737 238.227 81.204 238.227 79.7922C238.227 78.3988 238.017 77.1475 237.595 76.0382C237.182 74.929 236.559 74.0535 235.725 73.4118C234.9 72.7701 233.868 72.4492 232.631 72.4492C231.439 72.4492 230.431 72.7563 229.606 73.3705C228.79 73.9847 228.171 74.8419 227.749 75.942C227.328 77.042 227.117 78.3255 227.117 79.7922Z" fill="white"/>
<path d="M260.366 81.5936V69.2315H264.492V90.353H260.449V86.6952H260.229C259.743 87.8228 258.964 88.7624 257.891 89.5142C256.828 90.2567 255.503 90.628 253.917 90.628C252.561 90.628 251.36 90.3301 250.315 89.7342C249.279 89.1291 248.463 88.2353 247.867 87.0527C247.28 85.8702 246.987 84.408 246.987 82.6662V69.2315H251.098V82.1712C251.098 83.6104 251.497 84.7563 252.295 85.6089C253.092 86.4614 254.128 86.8877 255.402 86.8877C256.172 86.8877 256.938 86.6952 257.699 86.3102C258.469 85.9252 259.106 85.343 259.61 84.5638C260.124 83.7846 260.376 82.7945 260.366 81.5936Z" fill="white"/>
<path d="M279.119 90.7792C277.038 90.7792 275.246 90.3346 273.743 89.4454C272.248 88.547 271.093 87.2865 270.277 85.6639C269.471 84.0321 269.067 82.1207 269.067 79.9297C269.067 77.7663 269.471 75.8595 270.277 74.2093C271.093 72.5592 272.23 71.2712 273.688 70.3453C275.155 69.4194 276.869 68.9565 278.831 68.9565C280.022 68.9565 281.177 69.1536 282.296 69.5478C283.414 69.942 284.418 70.5608 285.307 71.4042C286.197 72.2475 286.898 73.343 287.411 74.6906C287.925 76.0291 288.181 77.6563 288.181 79.5722V81.0298H271.391V77.9496H284.152C284.152 76.8679 283.932 75.9099 283.492 75.0757C283.052 74.2323 282.433 73.5676 281.636 73.0818C280.847 72.5959 279.922 72.353 278.858 72.353C277.703 72.353 276.695 72.6372 275.833 73.2055C274.98 73.7647 274.32 74.4981 273.853 75.4057C273.394 76.3041 273.165 77.2804 273.165 78.3346V80.7411C273.165 82.1528 273.413 83.3537 273.908 84.3438C274.412 85.3339 275.113 86.0902 276.012 86.6127C276.91 87.1261 277.96 87.3828 279.161 87.3828C279.94 87.3828 280.65 87.2728 281.292 87.0527C281.934 86.8236 282.488 86.4844 282.956 86.0352C283.423 85.586 283.781 85.0313 284.028 84.3713L287.92 85.0726C287.608 86.2185 287.049 87.2223 286.242 88.0841C285.445 88.9366 284.441 89.6013 283.231 90.078C282.03 90.5455 280.659 90.7792 279.119 90.7792Z" fill="white"/>
<path d="M308.57 74.3881L304.844 75.0482C304.688 74.5715 304.441 74.1177 304.101 73.6868C303.771 73.2559 303.322 72.903 302.754 72.628C302.185 72.353 301.475 72.2155 300.622 72.2155C299.458 72.2155 298.486 72.4767 297.707 72.9993C296.928 73.5126 296.538 74.1773 296.538 74.9932C296.538 75.699 296.8 76.2674 297.322 76.6983C297.845 77.1291 298.688 77.4821 299.852 77.7571L303.208 78.5271C305.151 78.9763 306.599 79.6685 307.553 80.6035C308.506 81.5386 308.983 82.7533 308.983 84.2475C308.983 85.5126 308.616 86.6402 307.883 87.6303C307.159 88.6112 306.146 89.3812 304.844 89.9404C303.551 90.4996 302.053 90.7792 300.347 90.7792C297.982 90.7792 296.053 90.275 294.558 89.2666C293.064 88.2491 292.147 86.8052 291.808 84.9351L295.782 84.3301C296.03 85.366 296.538 86.1498 297.308 86.6815C298.078 87.204 299.082 87.4653 300.32 87.4653C301.667 87.4653 302.745 87.1857 303.551 86.6265C304.358 86.0581 304.761 85.366 304.761 84.5501C304.761 83.89 304.514 83.3354 304.019 82.8862C303.533 82.437 302.786 82.0978 301.777 81.8686L298.202 81.0848C296.231 80.6356 294.774 79.9206 293.829 78.9397C292.894 77.9588 292.427 76.7166 292.427 75.2132C292.427 73.9664 292.775 72.8755 293.472 71.9404C294.169 71.0054 295.131 70.2766 296.36 69.754C297.588 69.2223 298.995 68.9565 300.581 68.9565C302.864 68.9565 304.661 69.4515 305.972 70.4416C307.282 71.4225 308.149 72.738 308.57 74.3881Z" fill="white"/>
<path d="M323.363 69.2315V72.5317H311.826V69.2315H323.363ZM314.92 64.1711H319.032V84.1513C319.032 84.9488 319.151 85.5493 319.389 85.9527C319.627 86.3469 319.934 86.6173 320.31 86.764C320.695 86.9015 321.112 86.9702 321.562 86.9702C321.892 86.9702 322.18 86.9473 322.428 86.9015C322.676 86.8556 322.868 86.819 323.006 86.7915L323.748 90.188C323.51 90.2796 323.171 90.3713 322.731 90.463C322.29 90.5638 321.74 90.6188 321.08 90.628C319.999 90.6463 318.99 90.4538 318.055 90.0504C317.12 89.6471 316.364 89.0237 315.786 88.1803C315.209 87.3369 314.92 86.2781 314.92 85.0038V64.1711Z" fill="white"/>
<path d="M334.058 90.8205C332.719 90.8205 331.509 90.573 330.428 90.078C329.346 89.5737 328.489 88.8449 327.856 87.8915C327.233 86.9381 326.921 85.7693 326.921 84.3851C326.921 83.1933 327.15 82.2124 327.609 81.4423C328.067 80.6723 328.686 80.0627 329.465 79.6135C330.244 79.1643 331.115 78.8251 332.078 78.5959C333.04 78.3667 334.021 78.1925 335.02 78.0734C336.286 77.9267 337.312 77.8075 338.101 77.7158C338.889 77.615 339.462 77.4546 339.82 77.2346C340.177 77.0145 340.356 76.657 340.356 76.162V76.0657C340.356 74.8648 340.017 73.9343 339.338 73.2743C338.669 72.6142 337.67 72.2842 336.341 72.2842C334.956 72.2842 333.865 72.5913 333.068 73.2055C332.279 73.8106 331.734 74.4844 331.431 75.2269L327.567 74.3469C328.026 73.0634 328.695 72.0275 329.575 71.2391C330.464 70.4416 331.486 69.864 332.642 69.5065C333.797 69.1398 335.011 68.9565 336.286 68.9565C337.129 68.9565 338.023 69.0573 338.967 69.259C339.92 69.4515 340.81 69.809 341.635 70.3316C342.469 70.8541 343.152 71.6012 343.684 72.573C344.215 73.5356 344.481 74.7869 344.481 76.327V90.353H340.466V87.4653H340.301C340.035 87.997 339.636 88.5195 339.104 89.0329C338.573 89.5462 337.89 89.9725 337.056 90.3117C336.221 90.6509 335.222 90.8205 334.058 90.8205ZM334.952 87.5203C336.088 87.5203 337.06 87.2957 337.867 86.8465C338.683 86.3973 339.302 85.8106 339.723 85.0864C340.154 84.353 340.37 83.5692 340.37 82.7349V80.0122C340.223 80.1589 339.939 80.2964 339.517 80.4248C339.104 80.544 338.632 80.6494 338.101 80.7411C337.569 80.8236 337.051 80.9015 336.547 80.9748C336.043 81.039 335.621 81.094 335.282 81.1398C334.484 81.2407 333.755 81.4103 333.095 81.6486C332.444 81.887 331.922 82.2307 331.528 82.6799C331.143 83.12 330.95 83.7067 330.95 84.4401C330.95 85.4576 331.326 86.2277 332.078 86.7502C332.829 87.2636 333.787 87.5203 334.952 87.5203Z" fill="white"/>
<path d="M360.535 90.353V62.191H378.192V65.8488H364.784V74.4294H377.27V78.0734H364.784V86.6952H378.357V90.353H360.535Z" fill="white"/>
<path d="M392.434 90.7792C390.39 90.7792 388.63 90.3163 387.154 89.3904C385.687 88.4553 384.559 87.1673 383.771 85.5264C382.983 83.8854 382.588 82.0061 382.588 79.8885C382.588 77.7433 382.992 75.8503 383.798 74.2093C384.605 72.5592 385.742 71.2712 387.209 70.3453C388.675 69.4194 390.404 68.9565 392.393 68.9565C393.997 68.9565 395.427 69.2544 396.683 69.8503C397.939 70.437 398.952 71.2621 399.722 72.3255C400.501 73.3889 400.964 74.631 401.111 76.052H397.109C396.889 75.0619 396.385 74.2093 395.597 73.4943C394.818 72.7792 393.773 72.4217 392.462 72.4217C391.316 72.4217 390.312 72.7242 389.45 73.3293C388.598 73.9252 387.933 74.7777 387.456 75.887C386.98 76.987 386.741 78.2888 386.741 79.7922C386.741 81.3323 386.975 82.6616 387.443 83.78C387.91 84.8984 388.57 85.7647 389.423 86.3789C390.284 86.9932 391.297 87.3003 392.462 87.3003C393.241 87.3003 393.947 87.1582 394.579 86.874C395.221 86.5806 395.757 86.1635 396.188 85.6226C396.628 85.0818 396.935 84.4309 397.109 83.67H401.111C400.964 85.0359 400.52 86.2552 399.777 87.3278C399.035 88.4003 398.04 89.2437 396.793 89.8579C395.556 90.4721 394.103 90.7792 392.434 90.7792Z" fill="white"/>
<path d="M414.405 90.7792C412.425 90.7792 410.697 90.3255 409.221 89.4179C407.745 88.5103 406.599 87.2407 405.783 85.6089C404.967 83.9771 404.559 82.0703 404.559 79.8885C404.559 77.6975 404.967 75.7815 405.783 74.1406C406.599 72.4996 407.745 71.2254 409.221 70.3178C410.697 69.4103 412.425 68.9565 414.405 68.9565C416.385 68.9565 418.113 69.4103 419.589 70.3178C421.065 71.2254 422.211 72.4996 423.027 74.1406C423.842 75.7815 424.25 77.6975 424.25 79.8885C424.25 82.0703 423.842 83.9771 423.027 85.6089C422.211 87.2407 421.065 88.5103 419.589 89.4179C418.113 90.3255 416.385 90.7792 414.405 90.7792ZM414.418 87.3278C415.702 87.3278 416.765 86.9886 417.609 86.3102C418.452 85.6318 419.075 84.7288 419.479 83.6012C419.891 82.4737 420.098 81.2315 420.098 79.8747C420.098 78.5271 419.891 77.2896 419.479 76.162C419.075 75.0252 418.452 74.1131 417.609 73.4255C416.765 72.738 415.702 72.3942 414.418 72.3942C413.126 72.3942 412.053 72.738 411.201 73.4255C410.357 74.1131 409.729 75.0252 409.317 76.162C408.913 77.2896 408.712 78.5271 408.712 79.8747C408.712 81.2315 408.913 82.4737 409.317 83.6012C409.729 84.7288 410.357 85.6318 411.201 86.3102C412.053 86.9886 413.126 87.3278 414.418 87.3278Z" fill="white"/>
<path d="M432.951 77.8121V90.353H428.84V69.2315H432.786V72.6692H433.048C433.533 71.5508 434.294 70.6524 435.33 69.9741C436.375 69.2957 437.691 68.9565 439.277 68.9565C440.716 68.9565 441.977 69.259 443.058 69.864C444.14 70.4599 444.979 71.3491 445.575 72.5317C446.171 73.7143 446.468 75.1765 446.468 76.9183V90.353H442.357V77.4133C442.357 75.8824 441.958 74.686 441.161 73.8243C440.363 72.9534 439.268 72.518 437.874 72.518C436.921 72.518 436.073 72.7242 435.33 73.1368C434.597 73.5493 434.015 74.1543 433.584 74.9519C433.162 75.7403 432.951 76.6937 432.951 77.8121Z" fill="white"/>
<path d="M460.879 90.7792C458.899 90.7792 457.171 90.3255 455.695 89.4179C454.219 88.5103 453.074 87.2407 452.258 85.6089C451.442 83.9771 451.034 82.0703 451.034 79.8885C451.034 77.6975 451.442 75.7815 452.258 74.1406C453.074 72.4996 454.219 71.2254 455.695 70.3178C457.171 69.4103 458.899 68.9565 460.879 68.9565C462.86 68.9565 464.588 69.4103 466.064 70.3178C467.54 71.2254 468.685 72.4996 469.501 74.1406C470.317 75.7815 470.725 77.6975 470.725 79.8885C470.725 82.0703 470.317 83.9771 469.501 85.6089C468.685 87.2407 467.54 88.5103 466.064 89.4179C464.588 90.3255 462.86 90.7792 460.879 90.7792ZM460.893 87.3278C462.177 87.3278 463.24 86.9886 464.083 86.3102C464.927 85.6318 465.55 84.7288 465.954 83.6012C466.366 82.4737 466.572 81.2315 466.572 79.8747C466.572 78.5271 466.366 77.2896 465.954 76.162C465.55 75.0252 464.927 74.1131 464.083 73.4255C463.24 72.738 462.177 72.3942 460.893 72.3942C459.601 72.3942 458.528 72.738 457.675 73.4255C456.832 74.1131 456.204 75.0252 455.792 76.162C455.388 77.2896 455.187 78.5271 455.187 79.8747C455.187 81.2315 455.388 82.4737 455.792 83.6012C456.204 84.7288 456.832 85.6318 457.675 86.3102C458.528 86.9886 459.601 87.3278 460.893 87.3278ZM459.188 66.4126L462.406 60.0734H466.737L462.475 66.4126H459.188Z" fill="white"/>
<path d="M475.315 90.353V69.2315H479.261V72.6692H479.522C479.962 71.505 480.682 70.5974 481.681 69.9466C482.68 69.2865 483.877 68.9565 485.27 68.9565C486.682 68.9565 487.865 69.2865 488.818 69.9466C489.781 70.6066 490.491 71.5142 490.949 72.6692H491.169C491.674 71.5417 492.476 70.6433 493.576 69.9741C494.676 69.2957 495.987 68.9565 497.509 68.9565C499.425 68.9565 500.988 69.5569 502.198 70.7579C503.417 71.9588 504.027 73.7693 504.027 76.1895V90.353H499.915V76.5745C499.915 75.1444 499.525 74.1085 498.746 73.4668C497.967 72.8251 497.036 72.5042 495.955 72.5042C494.616 72.5042 493.576 72.9168 492.833 73.7418C492.091 74.5577 491.719 75.6074 491.719 76.8908V90.353H487.622V76.3132C487.622 75.1673 487.264 74.246 486.549 73.5493C485.834 72.8526 484.904 72.5042 483.758 72.5042C482.978 72.5042 482.259 72.7105 481.599 73.123C480.948 73.5264 480.421 74.0902 480.017 74.8144C479.623 75.5386 479.426 76.3774 479.426 77.3308V90.353H475.315Z" fill="white"/>
<path d="M509.537 90.353V69.2315H513.649V90.353H509.537ZM511.614 65.9725C510.899 65.9725 510.284 65.7342 509.771 65.2575C509.267 64.7716 509.015 64.1941 509.015 63.5249C509.015 62.8465 509.267 62.2689 509.771 61.7922C510.284 61.3064 510.899 61.0634 511.614 61.0634C512.329 61.0634 512.938 61.3064 513.443 61.7922C513.956 62.2689 514.213 62.8465 514.213 63.5249C514.213 64.1941 513.956 64.7716 513.443 65.2575C512.938 65.7342 512.329 65.9725 511.614 65.9725Z" fill="white"/>
<path d="M528.077 90.7792C526.033 90.7792 524.273 90.3163 522.797 89.3904C521.33 88.4553 520.202 87.1673 519.414 85.5264C518.625 83.8854 518.231 82.0061 518.231 79.8885C518.231 77.7433 518.635 75.8503 519.441 74.2093C520.248 72.5592 521.385 71.2712 522.852 70.3453C524.318 69.4194 526.046 68.9565 528.036 68.9565C529.64 68.9565 531.07 69.2544 532.326 69.8503C533.582 70.437 534.595 71.2621 535.365 72.3255C536.144 73.3889 536.607 74.631 536.754 76.052H532.752C532.532 75.0619 532.028 74.2093 531.24 73.4943C530.46 72.7792 529.415 72.4217 528.104 72.4217C526.959 72.4217 525.955 72.7242 525.093 73.3293C524.24 73.9252 523.576 74.7777 523.099 75.887C522.622 76.987 522.384 78.2888 522.384 79.7922C522.384 81.3323 522.618 82.6616 523.085 83.78C523.553 84.8984 524.213 85.7647 525.065 86.3789C525.927 86.9932 526.94 87.3003 528.104 87.3003C528.884 87.3003 529.59 87.1582 530.222 86.874C530.864 86.5806 531.4 86.1635 531.831 85.6226C532.271 85.0818 532.578 84.4309 532.752 83.67H536.754C536.607 85.0359 536.163 86.2552 535.42 87.3278C534.677 88.4003 533.683 89.2437 532.436 89.8579C531.198 90.4721 529.745 90.7792 528.077 90.7792Z" fill="white"/>
<path d="M547.297 90.8205C545.959 90.8205 544.749 90.573 543.667 90.078C542.585 89.5737 541.728 88.8449 541.096 87.8915C540.472 86.9381 540.161 85.7693 540.161 84.3851C540.161 83.1933 540.39 82.2124 540.848 81.4423C541.307 80.6723 541.925 80.0627 542.705 79.6135C543.484 79.1643 544.355 78.8251 545.317 78.5959C546.28 78.3667 547.261 78.1925 548.26 78.0734C549.525 77.9267 550.552 77.8075 551.34 77.7158C552.129 77.615 552.701 77.4546 553.059 77.2346C553.417 77.0145 553.595 76.657 553.595 76.162V76.0657C553.595 74.8648 553.256 73.9343 552.578 73.2743C551.909 72.6142 550.909 72.2842 549.58 72.2842C548.196 72.2842 547.105 72.5913 546.307 73.2055C545.519 73.8106 544.973 74.4844 544.671 75.2269L540.807 74.3469C541.265 73.0634 541.934 72.0275 542.815 71.2391C543.704 70.4416 544.726 69.864 545.881 69.5065C547.036 69.1398 548.251 68.9565 549.525 68.9565C550.368 68.9565 551.262 69.0573 552.206 69.259C553.16 69.4515 554.049 69.809 554.874 70.3316C555.708 70.8541 556.391 71.6012 556.923 72.573C557.455 73.5356 557.721 74.7869 557.721 76.327V90.353H553.705V87.4653H553.54C553.274 87.997 552.876 88.5195 552.344 89.0329C551.812 89.5462 551.129 89.9725 550.295 90.3117C549.461 90.6509 548.462 90.8205 547.297 90.8205ZM548.191 87.5203C549.328 87.5203 550.3 87.2957 551.106 86.8465C551.922 86.3973 552.541 85.8106 552.963 85.0864C553.394 84.353 553.609 83.5692 553.609 82.7349V80.0122C553.462 80.1589 553.178 80.2964 552.756 80.4248C552.344 80.544 551.872 80.6494 551.34 80.7411C550.808 80.8236 550.29 80.9015 549.786 80.9748C549.282 81.039 548.86 81.094 548.521 81.1398C547.724 81.2407 546.995 81.4103 546.335 81.6486C545.684 81.887 545.161 82.2307 544.767 82.6799C544.382 83.12 544.19 83.7067 544.19 84.4401C544.19 85.4576 544.565 86.2277 545.317 86.7502C546.069 87.2636 547.027 87.5203 548.191 87.5203Z" fill="white"/>
<path fill-rule="evenodd" clip-rule="evenodd" d="M730.308 28.6997C730.06 27.594 729.855 26.4731 729.695 25.3384C729.42 23.3837 729.277 21.3884 729.277 19.3614H819.748L852.41 63.5628H775.354C753.241 63.5628 734.775 48.6229 730.308 28.6997ZM833.671 54.2245H775.354C758.53 54.2245 744.471 43.3553 740.218 28.6997H814.81L833.671 54.2245Z" fill="url(#paint1_linear_373_352)"/>
<path fill-rule="evenodd" clip-rule="evenodd" d="M860.88 130.128C861.115 131.192 861.31 132.269 861.464 133.36C861.739 135.314 861.882 137.31 861.882 139.337L771.411 139.337L738.749 95.1353L815.805 95.1353C837.966 95.1353 856.464 110.14 860.88 130.128ZM757.337 104.344L815.805 104.344C832.606 104.344 846.778 115.263 850.989 130.128L776.389 130.128L757.337 104.344Z" fill="url(#paint2_linear_373_352)"/>
<path d="M767.709 66.7202C767.709 66.7202 787.66 70.2558 789.265 95.1354L738.749 95.1354L767.709 66.7202Z" fill="url(#paint3_linear_373_352)"/>
<path d="M823.449 91.9779C823.449 91.9779 803.499 88.4423 801.894 63.5627L852.41 63.5627L823.449 91.9779Z" fill="url(#paint4_linear_373_352)"/>
<path d="M974.579 139.318C976.767 139.318 978.763 138.459 980.601 136.723C981.599 135.664 982.282 134.476 982.685 133.142C982.142 132.831 981.564 132.667 980.951 132.667C980.794 132.667 980.496 132.703 980.041 132.758C979.586 132.813 979.061 133.142 978.465 133.745L978.098 134.11C977.082 135.134 975.909 135.645 974.579 135.645C973.301 135.645 972.128 135.134 971.06 134.11C970.097 132.996 969.607 131.771 969.607 130.437C969.607 129.103 970.097 127.879 971.06 126.764C972.128 125.741 973.301 125.229 974.579 125.229C975.909 125.248 977.082 125.759 978.098 126.764L978.465 127.13C979.183 127.843 980.024 128.208 980.986 128.208C981.582 128.208 982.142 128.044 982.685 127.733C982.282 126.399 981.599 125.211 980.601 124.151C978.763 122.415 976.767 121.556 974.579 121.556C972.321 121.556 970.307 122.415 968.557 124.151C966.893 126.07 966.071 128.153 966.071 130.437C966.071 132.722 966.893 134.805 968.557 136.723C970.307 138.459 972.321 139.318 974.579 139.318Z" fill="#6A00A7"/>
<path d="M994.225 139.318V114.613C994.225 113.589 993.875 112.712 993.192 111.999C992.509 111.287 991.669 110.921 990.706 110.921V135.645C990.706 136.65 991.056 137.527 991.739 138.24C992.422 138.953 993.262 139.318 994.225 139.318Z" fill="#6A00A7"/>
<path d="M1010.77 139.318C1013.12 139.318 1015.11 138.459 1016.78 136.723C1018.44 134.987 1019.28 132.886 1019.28 130.437C1019.28 127.97 1018.44 125.887 1016.78 124.151C1015.11 122.415 1013.12 121.556 1010.77 121.556C1008.41 121.556 1006.4 122.415 1004.73 124.151C1003.07 125.887 1002.25 127.97 1002.25 130.437C1002.25 132.886 1003.07 134.987 1004.73 136.723C1006.4 138.459 1008.41 139.318 1010.77 139.318ZM1010.77 135.627C1009.39 135.627 1008.22 135.115 1007.24 134.11C1006.27 133.105 1005.78 131.881 1005.78 130.437C1005.78 128.994 1006.27 127.769 1007.24 126.764C1008.22 125.741 1009.39 125.229 1010.77 125.229C1012.14 125.229 1013.31 125.741 1014.27 126.764C1015.25 127.769 1015.74 128.994 1015.74 130.437C1015.74 131.881 1015.25 133.105 1014.27 134.11C1013.31 135.115 1012.14 135.627 1010.77 135.627Z" fill="#6A00A7"/>
<path d="M1044.34 139.318V121.538C1043.36 121.538 1042.52 121.904 1041.83 122.616C1041.15 123.329 1040.8 124.206 1040.8 125.229V130.309C1040.8 131.717 1040.35 132.923 1039.44 133.946C1038.52 134.969 1037.39 135.536 1036 135.627H1035.95C1034.52 135.627 1033.31 135.134 1032.31 134.129C1031.33 133.124 1030.84 131.899 1030.84 130.419V125.229C1030.84 124.206 1030.49 123.329 1029.81 122.616C1029.12 121.904 1028.28 121.538 1027.3 121.538V130.419C1027.3 132.886 1028.13 134.987 1029.79 136.723C1031.45 138.459 1033.47 139.318 1035.83 139.318C1037.86 139.318 1039.65 138.642 1041.2 137.308C1041.36 137.655 1041.57 137.966 1041.83 138.24C1042.52 138.953 1043.36 139.318 1044.34 139.318Z" fill="#6A00A7"/>
<path d="M1060.87 139.318C1063.21 139.318 1065.21 138.459 1066.87 136.723C1068.53 134.987 1069.38 132.886 1069.38 130.437V113.169C1068.41 113.169 1067.57 113.534 1066.89 114.247C1066.21 114.96 1065.86 115.837 1065.86 116.842V130.437C1065.86 131.881 1065.37 133.105 1064.39 134.129C1063.42 135.134 1062.25 135.645 1060.87 135.645C1059.5 135.645 1058.33 135.134 1057.35 134.129C1056.39 133.105 1055.89 131.881 1055.89 130.437C1055.89 128.994 1056.39 127.769 1057.35 126.764C1058.33 125.741 1059.5 125.229 1060.87 125.229H1061.34C1062.3 125.229 1063.13 124.882 1063.81 124.17C1064.49 123.457 1064.84 122.58 1064.86 121.556H1060.87C1059.96 121.556 1059.08 121.703 1058.26 121.977C1056.95 122.434 1055.81 123.146 1054.84 124.151C1053.18 125.887 1052.36 127.989 1052.36 130.437C1052.36 132.886 1053.18 134.987 1054.84 136.723C1056.51 138.459 1058.52 139.318 1060.87 139.318Z" fill="#6A00A7"/>
<path d="M1102.73 125.942C1103.7 125.942 1104.54 125.577 1105.22 124.864C1105.9 124.151 1106.25 123.274 1106.25 122.251H1099.49C1098.53 122.251 1097.69 122.616 1097.01 123.329C1096.33 124.042 1095.98 124.919 1095.98 125.942H1102.73ZM1108.41 139.318C1108.41 138.295 1108.06 137.418 1107.37 136.705C1106.69 135.992 1105.85 135.627 1104.89 135.627H1095.19V116.714H1104.89C1105.85 116.714 1106.69 116.349 1107.37 115.636C1108.06 114.923 1108.41 114.046 1108.41 113.041H1091.65V139.318H1091.79H1108.41Z" fill="#6A00A7"/>
<path d="M1134.97 139.337C1135.54 139.337 1136.12 139.172 1136.7 138.861L1130.99 128.263C1132.38 127.916 1133.55 127.221 1134.53 126.216C1135.98 124.7 1136.7 122.89 1136.7 120.752C1136.7 118.633 1135.98 116.824 1134.53 115.307C1133.08 113.79 1131.34 113.041 1129.31 113.041H1116.43V139.318C1117.39 139.318 1118.23 138.953 1118.91 138.24C1119.61 137.527 1119.96 136.65 1119.96 135.645V116.732H1129.31C1130.38 116.732 1131.27 117.134 1132.03 117.92C1132.78 118.706 1133.16 119.638 1133.16 120.752C1133.16 121.867 1132.78 122.836 1132.03 123.621C1131.27 124.407 1130.38 124.791 1129.31 124.791H1125.95C1124.97 124.791 1124.13 125.156 1123.45 125.869C1122.76 126.582 1122.41 127.459 1122.41 128.464H1127.07L1131.89 137.436C1132.39 138.331 1132.95 138.88 1133.57 139.062C1134.18 139.245 1134.65 139.337 1134.97 139.337Z" fill="#6A00A7"/>
<path d="M1144.7 139.318C1145.67 139.318 1146.51 138.953 1147.19 138.24C1147.89 137.509 1148.24 136.632 1148.24 135.627V116.714H1157.59C1158.66 116.714 1159.55 117.116 1160.3 117.902C1161.06 118.688 1161.44 119.638 1161.44 120.752C1161.44 121.867 1161.06 122.817 1160.3 123.603C1159.55 124.389 1158.66 124.773 1157.59 124.773H1154.23C1153.25 124.773 1152.41 125.138 1151.72 125.851C1151.04 126.563 1150.69 127.441 1150.69 128.464H1157.59C1159.64 128.464 1161.37 127.715 1162.81 126.198C1164.26 124.681 1164.98 122.872 1164.98 120.752C1164.98 118.614 1164.26 116.805 1162.81 115.289C1161.35 113.772 1159.62 113.023 1157.59 113.023H1144.7V139.318Z" fill="#6A00A7"/>
<path d="M942.045 101.45C945.163 101.45 947.885 100.298 950.096 98.051C952.308 95.8044 953.442 93.0393 953.442 89.871H904.225L949.189 28.6935L951.344 25.41C952.761 22.9905 953.442 20.9743 953.442 19.3614H895.379C892.261 19.3614 889.539 20.5135 887.328 22.7601C885.116 25.0067 883.982 27.7718 883.982 30.9401H933.256L888.405 92.0024L886.194 95.2859C884.719 97.763 883.982 99.7792 883.982 101.45H942.045Z" fill="#002955"/>
<path d="M893.447 56.8574C896.022 55.0287 899.191 54.0909 902.823 54.0909L1003.96 54.091C1003.96 56.7168 1003.38 58.9675 1000.81 60.7962C998.232 62.6249 995.063 63.5627 991.432 63.5627L890.297 63.5627C890.297 60.9368 890.872 58.6861 893.447 56.8574Z" fill="url(#paint5_linear_373_352)"/>
<path d="M1061.4 101.45C1068.03 101.45 1073.87 99.4587 1078.98 95.5335C1086.57 89.5603 1090.37 81.8236 1090.37 72.3803V19.6458C1087.25 19.6458 1084.53 20.7835 1082.32 23.0021C1080.11 25.2208 1078.98 27.9513 1078.98 31.137V72.3803C1078.98 77.2158 1077.27 81.3685 1073.82 84.8387C1070.36 88.3088 1066.22 90.0154 1061.4 90.0154C1056.52 90.0154 1052.39 88.3088 1048.93 84.8387C1045.53 81.3685 1043.82 77.2158 1043.82 72.3803V31.137C1043.82 27.9513 1042.69 25.2208 1040.48 23.0021C1038.27 20.7835 1035.55 19.6458 1032.37 19.6458V72.3803C1032.37 81.8236 1036.17 89.5603 1043.82 95.5335C1048.93 99.4587 1054.77 101.45 1061.4 101.45Z" fill="#002955"/>
<path d="M1144.83 101.45C1153.39 101.45 1160.08 97.6383 1164.9 90.0154C1167.06 86.4315 1168.13 82.4494 1168.13 78.0691C1168.13 73.7456 1167.06 69.7635 1164.9 66.1796V66.1227C1160.65 59.1825 1154.41 55.371 1146.14 54.6884H1125.33C1121.87 54.6884 1118.92 53.38 1116.6 50.82C1114.5 48.6014 1113.48 45.9277 1113.48 42.7989C1113.48 39.4995 1114.61 36.712 1116.94 34.3796C1119.26 32.0472 1122.1 30.8526 1125.33 30.8526H1156.74C1159.86 30.8526 1162.58 29.7148 1164.79 27.4962C1167 25.2776 1168.13 22.547 1168.13 19.3614H1125.33C1118.92 19.3614 1113.42 21.6369 1108.89 26.2447C1104.3 30.7388 1102.03 36.2569 1102.03 42.7989C1102.03 47.1224 1103.11 51.1045 1105.26 54.6884C1109.46 61.5149 1115.69 65.3263 1123.91 66.1227H1144.83C1148.12 66.1227 1150.9 67.3174 1153.22 69.6497C1155.55 71.9821 1156.68 74.8265 1156.68 78.1828C1156.68 81.7667 1155.32 84.7249 1152.54 87.0573C1150.22 89.0483 1147.55 90.0154 1144.55 90.0154H1113.48C1110.31 90.0154 1107.58 91.1531 1105.37 93.3717C1103.16 95.5904 1102.03 98.3209 1102.03 101.45H1144.83Z" fill="#002955"/>
<path d="M1019.74 101.45C1019.74 98.253 1018.62 95.5129 1016.43 93.2866C1014.25 91.0603 1011.56 89.9186 1008.47 89.9186H977.4V30.8355H1008.47C1011.56 30.8355 1014.25 29.6938 1016.43 27.4674C1018.62 25.2411 1019.74 22.501 1019.74 19.3614H966.071V101.45H966.519H1019.74Z" fill="#002955"/>
<path d="M1434.48 76.272C1434.48 79.2789 1433.93 81.8641 1432.83 84.0275C1431.73 86.1819 1430.22 87.8411 1428.31 89.0054C1426.4 90.1605 1424.23 90.738 1421.8 90.738C1419.36 90.738 1417.19 90.1605 1415.27 89.0054C1413.36 87.8411 1411.86 86.1773 1410.76 84.0138C1409.66 81.8503 1409.11 79.2697 1409.11 76.272C1409.11 73.2651 1409.66 70.6845 1410.76 68.5302C1411.86 66.3667 1413.36 64.7074 1415.27 63.5524C1417.19 62.3881 1419.36 61.806 1421.8 61.806C1424.23 61.806 1426.4 62.3881 1428.31 63.5524C1430.22 64.7074 1431.73 66.3667 1432.83 68.5302C1433.93 70.6845 1434.48 73.2651 1434.48 76.272ZM1430.27 76.272C1430.27 73.9802 1429.9 72.0505 1429.16 70.4828C1428.43 68.9061 1427.42 67.7143 1426.13 66.9076C1424.86 66.0917 1423.42 65.6838 1421.8 65.6838C1420.18 65.6838 1418.73 66.0917 1417.46 66.9076C1416.18 67.7143 1415.18 68.9061 1414.43 70.4828C1413.7 72.0505 1413.33 73.9802 1413.33 76.272C1413.33 78.5638 1413.7 80.4981 1414.43 82.0749C1415.18 83.6425 1416.18 84.8343 1417.46 85.6502C1418.73 86.4569 1420.18 86.8602 1421.8 86.8602C1423.42 86.8602 1424.86 86.4569 1426.13 85.6502C1427.42 84.8343 1428.43 83.6425 1429.16 82.0749C1429.9 80.4981 1430.27 78.5638 1430.27 76.272Z" fill="white"/>
<path d="M1439.45 90.353V69.2315H1443.42V72.5867H1443.64C1444.03 71.45 1444.71 70.5562 1445.68 69.9053C1446.66 69.2453 1447.77 68.9152 1449.01 68.9152C1449.26 68.9152 1449.57 68.9244 1449.91 68.9427C1450.27 68.9611 1450.55 68.984 1450.75 69.0115V72.9443C1450.59 72.8984 1450.29 72.848 1449.87 72.793C1449.45 72.7288 1449.03 72.6968 1448.61 72.6968C1447.64 72.6968 1446.77 72.903 1446.01 73.3155C1445.26 73.7189 1444.66 74.2827 1444.22 75.0069C1443.78 75.722 1443.56 76.5379 1443.56 77.4546V90.353H1439.45Z" fill="white"/>
<path d="M1461.46 90.7655C1459.76 90.7655 1458.23 90.3301 1456.9 89.4592C1455.57 88.5791 1454.52 87.3278 1453.76 85.7052C1453.01 84.0734 1452.63 82.1162 1452.63 79.8335C1452.63 77.5508 1453.01 75.5982 1453.77 73.9756C1454.54 72.353 1455.6 71.1108 1456.94 70.2491C1458.28 69.3874 1459.79 68.9565 1461.49 68.9565C1462.8 68.9565 1463.85 69.1765 1464.65 69.6165C1465.46 70.0474 1466.08 70.5516 1466.52 71.1291C1466.97 71.7067 1467.32 72.2155 1467.57 72.6555H1467.81V62.191H1471.93V90.353H1467.91V87.0665H1467.57C1467.32 87.5157 1466.96 88.0291 1466.49 88.6066C1466.04 89.1842 1465.4 89.6884 1464.6 90.1192C1463.79 90.5501 1462.74 90.7655 1461.46 90.7655ZM1462.37 87.259C1463.55 87.259 1464.55 86.9473 1465.37 86.324C1466.19 85.6914 1466.81 84.8159 1467.24 83.6975C1467.67 82.5791 1467.88 81.2774 1467.88 79.7923C1467.88 78.3255 1467.67 77.0421 1467.25 75.942C1466.83 74.8419 1466.21 73.9848 1465.39 73.3706C1464.58 72.7563 1463.57 72.4492 1462.37 72.4492C1461.13 72.4492 1460.1 72.7701 1459.27 73.4118C1458.45 74.0535 1457.83 74.929 1457.4 76.0382C1456.99 77.1475 1456.79 78.3988 1456.79 79.7923C1456.79 81.204 1457 82.4737 1457.42 83.6013C1457.84 84.7288 1458.46 85.6227 1459.29 86.2827C1460.12 86.9336 1461.15 87.259 1462.37 87.259Z" fill="white"/>
<path d="M1486.9 90.7793C1484.82 90.7793 1483.02 90.3346 1481.52 89.4454C1480.03 88.547 1478.87 87.2865 1478.05 85.6639C1477.25 84.0321 1476.84 82.1207 1476.84 79.9298C1476.84 77.7663 1477.25 75.8595 1478.05 74.2094C1478.87 72.5592 1480.01 71.2712 1481.46 70.3453C1482.93 69.4194 1484.65 68.9565 1486.61 68.9565C1487.8 68.9565 1488.95 69.1536 1490.07 69.5478C1491.19 69.942 1492.2 70.5608 1493.08 71.4042C1493.97 72.2476 1494.68 73.3431 1495.19 74.6906C1495.7 76.0291 1495.96 77.6563 1495.96 79.5722V81.0298H1479.17V77.9496H1491.93C1491.93 76.8679 1491.71 75.9099 1491.27 75.0757C1490.83 74.2323 1490.21 73.5676 1489.41 73.0818C1488.62 72.5959 1487.7 72.353 1486.64 72.353C1485.48 72.353 1484.47 72.6372 1483.61 73.2055C1482.76 73.7647 1482.1 74.4981 1481.63 75.4057C1481.17 76.3041 1480.94 77.2804 1480.94 78.3346V80.7411C1480.94 82.1528 1481.19 83.3537 1481.68 84.3438C1482.19 85.3339 1482.89 86.0902 1483.79 86.6127C1484.69 87.1261 1485.74 87.3828 1486.94 87.3828C1487.72 87.3828 1488.43 87.2728 1489.07 87.0528C1489.71 86.8236 1490.27 86.4844 1490.73 86.0352C1491.2 85.586 1491.56 85.0314 1491.81 84.3713L1495.7 85.0726C1495.39 86.2185 1494.83 87.2223 1494.02 88.0841C1493.22 88.9366 1492.22 89.6013 1491.01 90.078C1489.81 90.5455 1488.44 90.7793 1486.9 90.7793Z" fill="white"/>
<path d="M1504.63 77.8121V90.353H1500.52V69.2315H1504.47V72.6693H1504.73C1505.21 71.5508 1505.97 70.6524 1507.01 69.9741C1508.06 69.2957 1509.37 68.9565 1510.96 68.9565C1512.4 68.9565 1513.66 69.259 1514.74 69.8641C1515.82 70.4599 1516.66 71.3492 1517.26 72.5317C1517.85 73.7143 1518.15 75.1765 1518.15 76.9183V90.353H1514.04V77.4133C1514.04 75.8824 1513.64 74.6861 1512.84 73.8243C1512.04 72.9534 1510.95 72.518 1509.55 72.518C1508.6 72.518 1507.75 72.7243 1507.01 73.1368C1506.28 73.5493 1505.7 74.1544 1505.26 74.9519C1504.84 75.7403 1504.63 76.6937 1504.63 77.8121Z" fill="white"/>
<path d="M1541.82 90.7655C1540.11 90.7655 1538.59 90.3301 1537.25 89.4592C1535.92 88.5791 1534.88 87.3278 1534.12 85.7052C1533.37 84.0734 1532.99 82.1162 1532.99 79.8335C1532.99 77.5508 1533.37 75.5982 1534.13 73.9756C1534.9 72.353 1535.96 71.1108 1537.29 70.2491C1538.63 69.3874 1540.15 68.9565 1541.85 68.9565C1543.16 68.9565 1544.21 69.1765 1545.01 69.6165C1545.81 70.0474 1546.44 70.5516 1546.88 71.1291C1547.33 71.7067 1547.68 72.2155 1547.92 72.6555H1548.17V62.191H1552.28V90.353H1548.27V87.0665H1547.92C1547.68 87.5157 1547.32 88.0291 1546.85 88.6066C1546.39 89.1842 1545.76 89.6884 1544.95 90.1192C1544.15 90.5501 1543.1 90.7655 1541.82 90.7655ZM1542.73 87.259C1543.91 87.259 1544.91 86.9473 1545.72 86.324C1546.55 85.6914 1547.17 84.8159 1547.59 83.6975C1548.02 82.5791 1548.24 81.2774 1548.24 79.7923C1548.24 78.3255 1548.03 77.0421 1547.61 75.942C1547.19 74.8419 1546.57 73.9848 1545.75 73.3706C1544.93 72.7563 1543.93 72.4492 1542.73 72.4492C1541.49 72.4492 1540.46 72.7701 1539.63 73.4118C1538.81 74.0535 1538.18 74.929 1537.76 76.0382C1537.35 77.1475 1537.14 78.3988 1537.14 79.7923C1537.14 81.204 1537.35 82.4737 1537.78 83.6013C1538.2 84.7288 1538.82 85.6227 1539.65 86.2827C1540.48 86.9336 1541.51 87.259 1542.73 87.259Z" fill="white"/>
<path d="M1567.25 90.7793C1565.17 90.7793 1563.38 90.3346 1561.88 89.4454C1560.38 88.547 1559.23 87.2865 1558.41 85.6639C1557.61 84.0321 1557.2 82.1207 1557.2 79.9298C1557.2 77.7663 1557.61 75.8595 1558.41 74.2094C1559.23 72.5592 1560.36 71.2712 1561.82 70.3453C1563.29 69.4194 1565 68.9565 1566.96 68.9565C1568.16 68.9565 1569.31 69.1536 1570.43 69.5478C1571.55 69.942 1572.55 70.5608 1573.44 71.4042C1574.33 72.2476 1575.03 73.3431 1575.55 74.6906C1576.06 76.0291 1576.32 77.6563 1576.32 79.5722V81.0298H1559.53V77.9496H1572.29C1572.29 76.8679 1572.07 75.9099 1571.63 75.0757C1571.19 74.2323 1570.57 73.5676 1569.77 73.0818C1568.98 72.5959 1568.06 72.353 1566.99 72.353C1565.84 72.353 1564.83 72.6372 1563.97 73.2055C1563.11 73.7647 1562.45 74.4981 1561.99 75.4057C1561.53 76.3041 1561.3 77.2804 1561.3 78.3346V80.7411C1561.3 82.1528 1561.55 83.3537 1562.04 84.3438C1562.55 85.3339 1563.25 86.0902 1564.15 86.6127C1565.04 87.1261 1566.09 87.3828 1567.29 87.3828C1568.07 87.3828 1568.78 87.2728 1569.43 87.0528C1570.07 86.8236 1570.62 86.4844 1571.09 86.0352C1571.56 85.586 1571.92 85.0314 1572.16 84.3713L1576.05 85.0726C1575.74 86.2185 1575.18 87.2223 1574.38 88.0841C1573.58 88.9366 1572.58 89.6013 1571.37 90.078C1570.16 90.5455 1568.79 90.7793 1567.25 90.7793Z" fill="white"/>
<path d="M1606.82 69.589C1606.67 68.2873 1606.06 67.2789 1605 66.5638C1603.94 65.8396 1602.6 65.4775 1600.98 65.4775C1599.83 65.4775 1598.83 65.6608 1597.99 66.0275C1597.14 66.3851 1596.49 66.8801 1596.02 67.5126C1595.56 68.136 1595.33 68.8465 1595.33 69.644C1595.33 70.3133 1595.49 70.8908 1595.8 71.3767C1596.12 71.8625 1596.54 72.2705 1597.05 72.6005C1597.57 72.9214 1598.13 73.1918 1598.73 73.4118C1599.33 73.6227 1599.9 73.7968 1600.45 73.9343L1603.2 74.6494C1604.1 74.8694 1605.02 75.1673 1605.96 75.5432C1606.91 75.9191 1607.78 76.4141 1608.59 77.0283C1609.4 77.6425 1610.05 78.4034 1610.54 79.311C1611.05 80.2185 1611.3 81.3049 1611.3 82.5699C1611.3 84.1651 1610.89 85.5814 1610.06 86.819C1609.24 88.0566 1608.06 89.0329 1606.5 89.7479C1604.95 90.463 1603.07 90.8205 1600.87 90.8205C1598.77 90.8205 1596.94 90.4859 1595.4 89.8167C1593.86 89.1475 1592.66 88.1987 1591.79 86.9702C1590.91 85.7327 1590.43 84.2659 1590.34 82.5699H1594.6C1594.69 83.5875 1595.02 84.4355 1595.59 85.1139C1596.18 85.7831 1596.93 86.2827 1597.84 86.6127C1598.75 86.9336 1599.76 87.094 1600.85 87.094C1602.05 87.094 1603.12 86.9061 1604.05 86.5302C1605 86.1452 1605.74 85.6135 1606.28 84.9351C1606.82 84.2476 1607.09 83.4454 1607.09 82.5287C1607.09 81.6945 1606.85 81.0115 1606.38 80.4798C1605.91 79.9481 1605.27 79.5081 1604.46 79.1597C1603.67 78.8113 1602.76 78.5042 1601.75 78.2384L1598.43 77.3308C1596.17 76.7166 1594.38 75.8136 1593.06 74.6219C1591.75 73.4301 1591.1 71.8534 1591.1 69.8916C1591.1 68.2689 1591.54 66.8526 1592.42 65.6425C1593.3 64.4324 1594.49 63.4928 1595.99 62.8236C1597.5 62.1452 1599.19 61.806 1601.08 61.806C1602.99 61.806 1604.67 62.1406 1606.13 62.8098C1607.59 63.479 1608.75 64.4003 1609.59 65.5738C1610.44 66.738 1610.88 68.0764 1610.91 69.589H1606.82Z" fill="white"/>
<path d="M1625.15 90.7793C1623.07 90.7793 1621.28 90.3346 1619.77 89.4454C1618.28 88.547 1617.12 87.2865 1616.31 85.6639C1615.5 84.0321 1615.1 82.1207 1615.1 79.9298C1615.1 77.7663 1615.5 75.8595 1616.31 74.2094C1617.12 72.5592 1618.26 71.2712 1619.72 70.3453C1621.18 69.4194 1622.9 68.9565 1624.86 68.9565C1626.05 68.9565 1627.21 69.1536 1628.33 69.5478C1629.44 69.942 1630.45 70.5608 1631.34 71.4042C1632.23 72.2476 1632.93 73.3431 1633.44 74.6906C1633.95 76.0291 1634.21 77.6563 1634.21 79.5722V81.0298H1617.42V77.9496H1630.18C1630.18 76.8679 1629.96 75.9099 1629.52 75.0757C1629.08 74.2323 1628.46 73.5676 1627.67 73.0818C1626.88 72.5959 1625.95 72.353 1624.89 72.353C1623.73 72.353 1622.72 72.6372 1621.86 73.2055C1621.01 73.7647 1620.35 74.4981 1619.88 75.4057C1619.42 76.3041 1619.19 77.2804 1619.19 78.3346V80.7411C1619.19 82.1528 1619.44 83.3537 1619.94 84.3438C1620.44 85.3339 1621.14 86.0902 1622.04 86.6127C1622.94 87.1261 1623.99 87.3828 1625.19 87.3828C1625.97 87.3828 1626.68 87.2728 1627.32 87.0528C1627.96 86.8236 1628.52 86.4844 1628.99 86.0352C1629.45 85.586 1629.81 85.0314 1630.06 84.3713L1633.95 85.0726C1633.64 86.2185 1633.08 87.2223 1632.27 88.0841C1631.47 88.9366 1630.47 89.6013 1629.26 90.078C1628.06 90.5455 1626.69 90.7793 1625.15 90.7793Z" fill="white"/>
<path d="M1638.77 90.353V69.2315H1642.75V72.5867H1642.97C1643.35 71.45 1644.03 70.5562 1645 69.9053C1645.98 69.2453 1647.09 68.9152 1648.33 68.9152C1648.59 68.9152 1648.89 68.9244 1649.24 68.9427C1649.59 68.9611 1649.87 68.984 1650.08 69.0115V72.9443C1649.91 72.8984 1649.62 72.848 1649.2 72.793C1648.77 72.7288 1648.35 72.6968 1647.93 72.6968C1646.96 72.6968 1646.09 72.903 1645.33 73.3155C1644.58 73.7189 1643.98 74.2827 1643.54 75.0069C1643.1 75.722 1642.88 76.5379 1642.88 77.4546V90.353H1638.77Z" fill="white"/>
<path d="M1672.35 69.2315L1664.69 90.353H1660.29L1652.61 69.2315H1657.03L1662.38 85.4851H1662.6L1667.93 69.2315H1672.35Z" fill="white"/>
<path d="M1676.21 90.353V69.2315H1680.32V90.353H1676.21ZM1678.29 65.9725C1677.57 65.9725 1676.96 65.7342 1676.44 65.2575C1675.94 64.7716 1675.69 64.1941 1675.69 63.5249C1675.69 62.8465 1675.94 62.2689 1676.44 61.7922C1676.96 61.3064 1677.57 61.0634 1678.29 61.0634C1679 61.0634 1679.61 61.3064 1680.11 61.7922C1680.63 62.2689 1680.88 62.8465 1680.88 63.5249C1680.88 64.1941 1680.63 64.7716 1680.11 65.2575C1679.61 65.7342 1679 65.9725 1678.29 65.9725Z" fill="white"/>
<path d="M1694.75 90.7793C1692.7 90.7793 1690.94 90.3163 1689.47 89.3904C1688 88.4554 1686.87 87.1673 1686.09 85.5264C1685.3 83.8854 1684.9 82.0062 1684.9 79.8885C1684.9 77.7434 1685.31 75.8503 1686.11 74.2094C1686.92 72.5592 1688.06 71.2712 1689.52 70.3453C1690.99 69.4194 1692.72 68.9565 1694.71 68.9565C1696.31 68.9565 1697.74 69.2544 1699 69.8503C1700.25 70.437 1701.27 71.2621 1702.04 72.3255C1702.82 73.3889 1703.28 74.6311 1703.43 76.052H1699.42C1699.2 75.0619 1698.7 74.2094 1697.91 73.4943C1697.13 72.7793 1696.09 72.4217 1694.78 72.4217C1693.63 72.4217 1692.63 72.7243 1691.77 73.3293C1690.91 73.9252 1690.25 74.7777 1689.77 75.887C1689.29 76.9871 1689.06 78.2888 1689.06 79.7923C1689.06 81.3324 1689.29 82.6616 1689.76 83.78C1690.23 84.8984 1690.89 85.7647 1691.74 86.379C1692.6 86.9932 1693.61 87.3003 1694.78 87.3003C1695.56 87.3003 1696.26 87.1582 1696.89 86.874C1697.54 86.5806 1698.07 86.1635 1698.5 85.6227C1698.94 85.0818 1699.25 84.4309 1699.42 83.67H1703.43C1703.28 85.0359 1702.83 86.2552 1702.09 87.3278C1701.35 88.4003 1700.35 89.2437 1699.11 89.8579C1697.87 90.4722 1696.42 90.7793 1694.75 90.7793Z" fill="white"/>
<path d="M1707.82 90.353V69.2315H1711.93V90.353H1707.82ZM1709.9 65.9725C1709.18 65.9725 1708.57 65.7342 1708.06 65.2575C1707.55 64.7716 1707.3 64.1941 1707.3 63.5249C1707.3 62.8465 1707.55 62.2689 1708.06 61.7922C1708.57 61.3064 1709.18 61.0634 1709.9 61.0634C1710.61 61.0634 1711.22 61.3064 1711.73 61.7922C1712.24 62.2689 1712.5 62.8465 1712.5 63.5249C1712.5 64.1941 1712.24 64.7716 1711.73 65.2575C1711.22 65.7342 1710.61 65.9725 1709.9 65.9725Z" fill="white"/>
<path d="M1726.36 90.7793C1724.38 90.7793 1722.65 90.3255 1721.18 89.4179C1719.7 88.5104 1718.56 87.2407 1717.74 85.6089C1716.92 83.9771 1716.52 82.0703 1716.52 79.8885C1716.52 77.6975 1716.92 75.7816 1717.74 74.1406C1718.56 72.4997 1719.7 71.2254 1721.18 70.3178C1722.65 69.4103 1724.38 68.9565 1726.36 68.9565C1728.34 68.9565 1730.07 69.4103 1731.55 70.3178C1733.02 71.2254 1734.17 72.4997 1734.98 74.1406C1735.8 75.7816 1736.21 77.6975 1736.21 79.8885C1736.21 82.0703 1735.8 83.9771 1734.98 85.6089C1734.17 87.2407 1733.02 88.5104 1731.55 89.4179C1730.07 90.3255 1728.34 90.7793 1726.36 90.7793ZM1726.38 87.3278C1727.66 87.3278 1728.72 86.9886 1729.57 86.3102C1730.41 85.6318 1731.03 84.7288 1731.44 83.6013C1731.85 82.4737 1732.06 81.2315 1732.06 79.8748C1732.06 78.5272 1731.85 77.2896 1731.44 76.162C1731.03 75.0252 1730.41 74.1131 1729.57 73.4256C1728.72 72.738 1727.66 72.3942 1726.38 72.3942C1725.08 72.3942 1724.01 72.738 1723.16 73.4256C1722.32 74.1131 1721.69 75.0252 1721.27 76.162C1720.87 77.2896 1720.67 78.5272 1720.67 79.8748C1720.67 81.2315 1720.87 82.4737 1721.27 83.6013C1721.69 84.7288 1722.32 85.6318 1723.16 86.3102C1724.01 86.9886 1725.08 87.3278 1726.38 87.3278Z" fill="white"/>
<defs>
<linearGradient id="paint0_linear_373_352" x1="1681.86" y1="118.051" x2="348.355" y2="-162.027" gradientUnits="userSpaceOnUse">
<stop stop-color="#00CDCD"/>
<stop offset="1" stop-color="#6A00A7"/>
</linearGradient>
<linearGradient id="paint1_linear_373_352" x1="727.624" y1="21.1805" x2="851.501" y2="66.4239" gradientUnits="userSpaceOnUse">
<stop stop-color="#6A00A7"/>
<stop offset="1" stop-color="#00CDCD"/>
</linearGradient>
<linearGradient id="paint2_linear_373_352" x1="861.882" y1="139.361" x2="739.752" y2="92.2132" gradientUnits="userSpaceOnUse">
<stop stop-color="#6A00A7"/>
<stop offset="1" stop-color="#00CDCD"/>
</linearGradient>
<linearGradient id="paint3_linear_373_352" x1="764.007" y1="95.1354" x2="764.007" y2="66.7202" gradientUnits="userSpaceOnUse">
<stop stop-color="#002955"/>
<stop offset="1" stop-color="#00CDCD"/>
</linearGradient>
<linearGradient id="paint4_linear_373_352" x1="827.152" y1="63.5627" x2="827.152" y2="91.9779" gradientUnits="userSpaceOnUse">
<stop stop-color="#002955"/>
<stop offset="1" stop-color="#00CDCD"/>
</linearGradient>
<linearGradient id="paint5_linear_373_352" x1="1005.48" y1="63.1729" x2="968.191" y2="4.50071" gradientUnits="userSpaceOnUse">
<stop stop-color="#6A00A7"/>
<stop offset="1" stop-color="#00CDCD"/>
</linearGradient>
</defs>
</svg>
