<svg width="106" height="97" viewBox="0 0 106 97" fill="none" xmlns="http://www.w3.org/2000/svg">
<path fill-rule="evenodd" clip-rule="evenodd" d="M1.13157 7.79574C0.934117 6.88838 0.771006 5.96842 0.643645 5.03726C0.424226 3.43306 0.310913 1.79562 0.310913 0.13208H72.3715L98.3868 36.4067H37.011C19.398 36.4067 4.68956 24.1461 1.13157 7.79574ZM83.461 28.7431H37.011C23.6109 28.7431 12.4128 19.8231 9.02546 7.79574H68.4381L83.461 28.7431Z" fill="url(#paint0_linear_357_505)"/>
<path fill-rule="evenodd" clip-rule="evenodd" d="M105.202 89.214C105.389 90.0976 105.545 90.993 105.667 91.8988C105.887 93.5228 106 95.1804 106 96.8645L33.9394 96.8645L7.92411 60.142L69.2999 60.142C86.9511 60.142 101.685 72.6079 105.202 89.214ZM22.7293 67.7925L69.2999 67.7925C82.6821 67.7925 93.9702 76.8645 97.3237 89.214L37.9049 89.214L22.7293 67.7925Z" fill="url(#paint1_linear_357_505)"/>
<path d="M31.5441 39.0941C31.5441 39.0941 47.8157 41.7131 49.1249 60.1423L7.92409 60.1423L31.5441 39.0941Z" fill="url(#paint2_linear_357_505)"/>
<path d="M74.7668 57.9028C74.7668 57.9028 58.4952 55.2281 57.186 36.4067L98.3868 36.4067L74.7668 57.9028Z" fill="url(#paint3_linear_357_505)"/>
<defs>
<linearGradient id="paint0_linear_357_505" x1="-1.00607" y1="1.62502" x2="98.3411" y2="36.8412" gradientUnits="userSpaceOnUse">
<stop stop-color="#6A00A7"/>
<stop offset="1" stop-color="#00CDCD"/>
</linearGradient>
<linearGradient id="paint1_linear_357_505" x1="106" y1="96.8844" x2="7.69229" y2="60.4997" gradientUnits="userSpaceOnUse">
<stop stop-color="#6A00A7"/>
<stop offset="1" stop-color="#00CDCD"/>
</linearGradient>
<linearGradient id="paint2_linear_357_505" x1="28.5245" y1="60.1423" x2="28.5245" y2="39.0941" gradientUnits="userSpaceOnUse">
<stop stop-color="#002955"/>
<stop offset="1" stop-color="#00CDCD"/>
</linearGradient>
<linearGradient id="paint3_linear_357_505" x1="77.7864" y1="36.4067" x2="77.7864" y2="57.9028" gradientUnits="userSpaceOnUse">
<stop stop-color="#002955"/>
<stop offset="1" stop-color="#00CDCD"/>
</linearGradient>
</defs>
</svg>
