<svg width="81" height="15" viewBox="0 0 81 15" fill="none" xmlns="http://www.w3.org/2000/svg">
<path fill-rule="evenodd" clip-rule="evenodd" d="M9.58835 12.0541H13.7221C14.0894 12.0541 14.3892 11.7544 14.3909 11.3871V10.9315H16.4422C16.7506 10.9315 17.0001 10.682 17.0001 10.3736V4.68054C17.0001 4.37216 16.7489 4.12267 16.4422 4.12267H14.3909V3.66702C14.3909 3.29973 14.0912 3 13.7221 3H9.58835C9.22106 3 8.92133 3.29973 8.92133 3.66702V4.12267H6.82325C6.51486 4.12267 6.26538 4.37389 6.26538 4.68054V10.3736C6.26538 10.682 6.5166 10.9315 6.82325 10.9315H8.92133V11.3871C8.92133 11.7544 9.22106 12.0541 9.58835 12.0541ZM8.92133 8.26859V6.60191H7.5821V6.10641H8.92133V4.61817H6.82325C6.7886 4.61817 6.76088 4.64589 6.76088 4.68054V10.3736C6.76088 10.4083 6.7886 10.436 6.82325 10.436H8.92133V9.69619H8.28203C7.88875 9.69619 7.56824 9.37567 7.56824 8.98239C7.56824 8.58911 7.88875 8.26859 8.28203 8.26859H8.92133ZM8.92133 8.76409H8.28203C8.16076 8.76409 8.06374 8.86285 8.06374 8.98239C8.06374 9.10194 8.16249 9.20069 8.28203 9.20069H8.92133V8.76409ZM16.4422 10.436H14.3909V9.69619H14.9869C15.3802 9.69619 15.7007 9.37567 15.7007 8.98239C15.7007 8.58911 15.3802 8.26859 14.9869 8.26859H14.3909V6.60191H15.6816V6.10641H14.3909V4.61817H16.4422C16.4769 4.61817 16.5046 4.64589 16.5046 4.68054V10.3736C16.5046 10.4083 16.4769 10.436 16.4422 10.436ZM14.9869 9.20069H14.3909V8.76409H14.9869C15.1064 8.76409 15.2052 8.86285 15.2052 8.98239C15.2052 9.10194 15.1082 9.20069 14.9869 9.20069ZM9.41683 3.66702C9.41683 3.57346 9.49307 3.4955 9.58835 3.4955H13.7221C13.8157 3.4955 13.8937 3.57173 13.8937 3.66702V11.3871C13.8937 11.4807 13.8174 11.5586 13.7221 11.5586H9.58835C9.4948 11.5586 9.41683 11.4824 9.41683 11.3871V3.66702ZM13.3237 5.37528H10.0163V5.87079H13.3237V5.37528ZM10.7994 7.02811H12.4817V7.52361H10.7994V7.02811ZM10.9328 10.5278H12.2755C12.7156 10.5278 13.0742 10.1692 13.0742 9.72911C13.0742 9.28905 12.7156 8.93042 12.2755 8.93042H10.9328C10.4927 8.93042 10.1341 9.28905 10.1341 9.72911C10.1341 10.1692 10.4927 10.5278 10.9328 10.5278ZM10.6296 9.72911C10.6296 9.56105 10.7665 9.42592 10.9328 9.42592H12.2755C12.4435 9.42592 12.5787 9.56279 12.5787 9.72911C12.5787 9.89716 12.4418 10.0323 12.2755 10.0323H10.9328C10.7647 10.0323 10.6296 9.89543 10.6296 9.72911Z" fill="white"/>
<path d="M27.49 4.07V4.91H25.31V11H24.34V4.91H22.16V4.07H27.49ZM27.6174 8.41C27.6174 7.95 27.6841 7.55 27.8174 7.21C27.9508 6.86333 28.1274 6.57667 28.3474 6.35C28.5674 6.12333 28.8208 5.95333 29.1074 5.84C29.3941 5.72667 29.6874 5.67 29.9874 5.67C30.6874 5.67 31.2241 5.89 31.5974 6.33C31.9708 6.76333 32.1574 7.42667 32.1574 8.32C32.1574 8.36 32.1574 8.41333 32.1574 8.48C32.1574 8.54 32.1541 8.59667 32.1474 8.65H28.5874C28.6274 9.19 28.7841 9.6 29.0574 9.88C29.3308 10.16 29.7574 10.3 30.3374 10.3C30.6641 10.3 30.9374 10.2733 31.1574 10.22C31.3841 10.16 31.5541 10.1033 31.6674 10.05L31.7974 10.83C31.6841 10.89 31.4841 10.9533 31.1974 11.02C30.9174 11.0867 30.5974 11.12 30.2374 11.12C29.7841 11.12 29.3908 11.0533 29.0574 10.92C28.7308 10.78 28.4608 10.59 28.2474 10.35C28.0341 10.11 27.8741 9.82667 27.7674 9.5C27.6674 9.16667 27.6174 8.80333 27.6174 8.41ZM31.1874 7.9C31.1941 7.48 31.0874 7.13667 30.8674 6.87C30.6541 6.59667 30.3574 6.46 29.9774 6.46C29.7641 6.46 29.5741 6.50333 29.4074 6.59C29.2474 6.67 29.1108 6.77667 28.9974 6.91C28.8841 7.04333 28.7941 7.19667 28.7274 7.37C28.6674 7.54333 28.6274 7.72 28.6074 7.9H31.1874ZM35.7534 11.12C35.3334 11.12 34.9634 11.0533 34.6434 10.92C34.33 10.7867 34.0634 10.6 33.8434 10.36C33.63 10.12 33.47 9.83667 33.3634 9.51C33.2567 9.17667 33.2034 8.81 33.2034 8.41C33.2034 8.01 33.26 7.64333 33.3734 7.31C33.4934 6.97667 33.66 6.69 33.8734 6.45C34.0867 6.20333 34.3467 6.01333 34.6534 5.88C34.9667 5.74 35.3134 5.67 35.6934 5.67C35.9267 5.67 36.16 5.69 36.3934 5.73C36.6267 5.77 36.85 5.83333 37.0634 5.92L36.8534 6.71C36.7134 6.64333 36.55 6.59 36.3634 6.55C36.1834 6.51 35.99 6.49 35.7834 6.49C35.2634 6.49 34.8634 6.65333 34.5834 6.98C34.31 7.30667 34.1734 7.78333 34.1734 8.41C34.1734 8.69 34.2034 8.94667 34.2634 9.18C34.33 9.41333 34.43 9.61333 34.5634 9.78C34.7034 9.94667 34.88 10.0767 35.0934 10.17C35.3067 10.2567 35.5667 10.3 35.8734 10.3C36.12 10.3 36.3434 10.2767 36.5434 10.23C36.7434 10.1833 36.9 10.1333 37.0134 10.08L37.1434 10.86C37.09 10.8933 37.0134 10.9267 36.9134 10.96C36.8134 10.9867 36.7 11.01 36.5734 11.03C36.4467 11.0567 36.31 11.0767 36.1634 11.09C36.0234 11.11 35.8867 11.12 35.7534 11.12ZM38.1418 5.95C38.3551 5.89667 38.6385 5.84 38.9918 5.78C39.3451 5.72 39.7518 5.69 40.2118 5.69C40.6251 5.69 40.9685 5.75 41.2418 5.87C41.5151 5.98333 41.7318 6.14667 41.8918 6.36C42.0585 6.56667 42.1751 6.81667 42.2418 7.11C42.3085 7.40333 42.3418 7.72667 42.3418 8.08V11H41.4118V8.28C41.4118 7.96 41.3885 7.68667 41.3418 7.46C41.3018 7.23333 41.2318 7.05 41.1318 6.91C41.0318 6.77 40.8985 6.67 40.7318 6.61C40.5651 6.54333 40.3585 6.51 40.1118 6.51C40.0118 6.51 39.9085 6.51333 39.8018 6.52C39.6951 6.52667 39.5918 6.53667 39.4918 6.55C39.3985 6.55667 39.3118 6.56667 39.2318 6.58C39.1585 6.59333 39.1051 6.60333 39.0718 6.61V11H38.1418V5.95ZM48.474 8.4C48.474 8.81333 48.414 9.18667 48.294 9.52C48.174 9.85333 48.004 10.14 47.784 10.38C47.5707 10.62 47.314 10.8067 47.014 10.94C46.714 11.0667 46.3873 11.13 46.034 11.13C45.6807 11.13 45.354 11.0667 45.054 10.94C44.754 10.8067 44.494 10.62 44.274 10.38C44.0607 10.14 43.894 9.85333 43.774 9.52C43.654 9.18667 43.594 8.81333 43.594 8.4C43.594 7.99333 43.654 7.62333 43.774 7.29C43.894 6.95 44.0607 6.66 44.274 6.42C44.494 6.18 44.754 5.99667 45.054 5.87C45.354 5.73667 45.6807 5.67 46.034 5.67C46.3873 5.67 46.714 5.73667 47.014 5.87C47.314 5.99667 47.5707 6.18 47.784 6.42C48.004 6.66 48.174 6.95 48.294 7.29C48.414 7.62333 48.474 7.99333 48.474 8.4ZM47.504 8.4C47.504 7.81333 47.3707 7.35 47.104 7.01C46.844 6.66333 46.4873 6.49 46.034 6.49C45.5807 6.49 45.2207 6.66333 44.954 7.01C44.694 7.35 44.564 7.81333 44.564 8.4C44.564 8.98667 44.694 9.45333 44.954 9.8C45.2207 10.14 45.5807 10.31 46.034 10.31C46.4873 10.31 46.844 10.14 47.104 9.8C47.3707 9.45333 47.504 8.98667 47.504 8.4ZM51.3424 11.1C50.7691 11.0867 50.3624 10.9633 50.1224 10.73C49.8824 10.4967 49.7624 10.1333 49.7624 9.64V3.4L50.6924 3.24V9.49C50.6924 9.64333 50.7058 9.77 50.7324 9.87C50.7591 9.97 50.8024 10.05 50.8624 10.11C50.9224 10.17 51.0024 10.2167 51.1024 10.25C51.2024 10.2767 51.3258 10.3 51.4724 10.32L51.3424 11.1ZM57.1068 8.4C57.1068 8.81333 57.0468 9.18667 56.9268 9.52C56.8068 9.85333 56.6368 10.14 56.4168 10.38C56.2035 10.62 55.9468 10.8067 55.6468 10.94C55.3468 11.0667 55.0201 11.13 54.6668 11.13C54.3135 11.13 53.9868 11.0667 53.6868 10.94C53.3868 10.8067 53.1268 10.62 52.9068 10.38C52.6935 10.14 52.5268 9.85333 52.4068 9.52C52.2868 9.18667 52.2268 8.81333 52.2268 8.4C52.2268 7.99333 52.2868 7.62333 52.4068 7.29C52.5268 6.95 52.6935 6.66 52.9068 6.42C53.1268 6.18 53.3868 5.99667 53.6868 5.87C53.9868 5.73667 54.3135 5.67 54.6668 5.67C55.0201 5.67 55.3468 5.73667 55.6468 5.87C55.9468 5.99667 56.2035 6.18 56.4168 6.42C56.6368 6.66 56.8068 6.95 56.9268 7.29C57.0468 7.62333 57.1068 7.99333 57.1068 8.4ZM56.1368 8.4C56.1368 7.81333 56.0035 7.35 55.7368 7.01C55.4768 6.66333 55.1201 6.49 54.6668 6.49C54.2135 6.49 53.8535 6.66333 53.5868 7.01C53.3268 7.35 53.1968 7.81333 53.1968 8.4C53.1968 8.98667 53.3268 9.45333 53.5868 9.8C53.8535 10.14 54.2135 10.31 54.6668 10.31C55.1201 10.31 55.4768 10.14 55.7368 9.8C56.0035 9.45333 56.1368 8.98667 56.1368 8.4ZM61.6752 10.48C61.5952 10.5333 61.4386 10.6033 61.2052 10.69C60.9786 10.77 60.7119 10.81 60.4052 10.81C60.0919 10.81 59.7952 10.76 59.5152 10.66C59.2419 10.56 59.0019 10.4067 58.7952 10.2C58.5886 9.98667 58.4252 9.72333 58.3052 9.41C58.1852 9.09667 58.1252 8.72333 58.1252 8.29C58.1252 7.91 58.1819 7.56333 58.2952 7.25C58.4086 6.93 58.5719 6.65667 58.7852 6.43C59.0052 6.19667 59.2719 6.01667 59.5852 5.89C59.8986 5.75667 60.2519 5.69 60.6452 5.69C61.0786 5.69 61.4552 5.72333 61.7752 5.79C62.1019 5.85 62.3752 5.90667 62.5952 5.96V10.6C62.5952 11.4 62.3886 11.98 61.9752 12.34C61.5619 12.7 60.9352 12.88 60.0952 12.88C59.7686 12.88 59.4586 12.8533 59.1652 12.8C58.8786 12.7467 58.6286 12.6833 58.4152 12.61L58.5852 11.8C58.7719 11.8733 58.9986 11.9367 59.2652 11.99C59.5386 12.05 59.8219 12.08 60.1152 12.08C60.6686 12.08 61.0652 11.97 61.3052 11.75C61.5519 11.53 61.6752 11.18 61.6752 10.7V10.48ZM61.6652 6.62C61.5719 6.59333 61.4452 6.57 61.2852 6.55C61.1319 6.52333 60.9219 6.51 60.6552 6.51C60.1552 6.51 59.7686 6.67333 59.4952 7C59.2286 7.32667 59.0952 7.76 59.0952 8.3C59.0952 8.6 59.1319 8.85667 59.2052 9.07C59.2852 9.28333 59.3886 9.46 59.5152 9.6C59.6486 9.74 59.7986 9.84333 59.9652 9.91C60.1386 9.97667 60.3152 10.01 60.4952 10.01C60.7419 10.01 60.9686 9.97667 61.1752 9.91C61.3819 9.83667 61.5452 9.75333 61.6652 9.66V6.62ZM65.1265 11H64.1965V5.8H65.1265V11ZM65.8765 3.83L64.4665 5.2L63.9965 4.78L65.2765 3.24L65.8765 3.83ZM68.4858 10.33C68.7058 10.33 68.8991 10.3267 69.0658 10.32C69.2391 10.3067 69.3824 10.2867 69.4958 10.26V8.71C69.4291 8.67667 69.3191 8.65 69.1658 8.63C69.0191 8.60333 68.8391 8.59 68.6258 8.59C68.4858 8.59 68.3358 8.6 68.1758 8.62C68.0224 8.64 67.8791 8.68333 67.7458 8.75C67.6191 8.81 67.5124 8.89667 67.4258 9.01C67.3391 9.11667 67.2958 9.26 67.2958 9.44C67.2958 9.77333 67.4024 10.0067 67.6158 10.14C67.8291 10.2667 68.1191 10.33 68.4858 10.33ZM68.4058 5.67C68.7791 5.67 69.0924 5.72 69.3458 5.82C69.6058 5.91333 69.8124 6.05 69.9658 6.23C70.1258 6.40333 70.2391 6.61333 70.3058 6.86C70.3724 7.1 70.4058 7.36667 70.4058 7.66V10.91C70.3258 10.9233 70.2124 10.9433 70.0658 10.97C69.9258 10.99 69.7658 11.01 69.5858 11.03C69.4058 11.05 69.2091 11.0667 68.9958 11.08C68.7891 11.1 68.5824 11.11 68.3758 11.11C68.0824 11.11 67.8124 11.08 67.5658 11.02C67.3191 10.96 67.1058 10.8667 66.9258 10.74C66.7458 10.6067 66.6058 10.4333 66.5058 10.22C66.4058 10.0067 66.3558 9.75 66.3558 9.45C66.3558 9.16333 66.4124 8.91667 66.5258 8.71C66.6458 8.50333 66.8058 8.33667 67.0058 8.21C67.2058 8.08333 67.4391 7.99 67.7058 7.93C67.9724 7.87 68.2524 7.84 68.5458 7.84C68.6391 7.84 68.7358 7.84667 68.8358 7.86C68.9358 7.86667 69.0291 7.88 69.1158 7.9C69.2091 7.91333 69.2891 7.92667 69.3558 7.94C69.4224 7.95333 69.4691 7.96333 69.4958 7.97V7.71C69.4958 7.55667 69.4791 7.40667 69.4458 7.26C69.4124 7.10667 69.3524 6.97333 69.2658 6.86C69.1791 6.74 69.0591 6.64667 68.9058 6.58C68.7591 6.50667 68.5658 6.47 68.3258 6.47C68.0191 6.47 67.7491 6.49333 67.5158 6.54C67.2891 6.58 67.1191 6.62333 67.0058 6.67L66.8958 5.9C67.0158 5.84667 67.2158 5.79667 67.4958 5.75C67.7758 5.69667 68.0791 5.67 68.4058 5.67ZM73.1604 10.33C73.5404 10.33 73.8204 10.28 74.0004 10.18C74.1871 10.08 74.2804 9.92 74.2804 9.7C74.2804 9.47333 74.1904 9.29333 74.0104 9.16C73.8304 9.02667 73.5337 8.87667 73.1204 8.71C72.9204 8.63 72.7271 8.55 72.5404 8.47C72.3604 8.38333 72.2037 8.28333 72.0704 8.17C71.9371 8.05667 71.8304 7.92 71.7504 7.76C71.6704 7.6 71.6304 7.40333 71.6304 7.17C71.6304 6.71 71.8004 6.34667 72.1404 6.08C72.4804 5.80667 72.9437 5.67 73.5304 5.67C73.6771 5.67 73.8237 5.68 73.9704 5.7C74.1171 5.71333 74.2537 5.73333 74.3804 5.76C74.5071 5.78 74.6171 5.80333 74.7104 5.83C74.8104 5.85667 74.8871 5.88 74.9404 5.9L74.7704 6.7C74.6704 6.64667 74.5137 6.59333 74.3004 6.54C74.0871 6.48 73.8304 6.45 73.5304 6.45C73.2704 6.45 73.0437 6.50333 72.8504 6.61C72.6571 6.71 72.5604 6.87 72.5604 7.09C72.5604 7.20333 72.5804 7.30333 72.6204 7.39C72.6671 7.47667 72.7337 7.55667 72.8204 7.63C72.9137 7.69667 73.0271 7.76 73.1604 7.82C73.2937 7.88 73.4537 7.94333 73.6404 8.01C73.8871 8.10333 74.1071 8.19667 74.3004 8.29C74.4937 8.37667 74.6571 8.48 74.7904 8.6C74.9304 8.72 75.0371 8.86667 75.1104 9.04C75.1837 9.20667 75.2204 9.41333 75.2204 9.66C75.2204 10.14 75.0404 10.5033 74.6804 10.75C74.3271 10.9967 73.8204 11.12 73.1604 11.12C72.7004 11.12 72.3404 11.08 72.0804 11C71.8204 10.9267 71.6437 10.87 71.5504 10.83L71.7204 10.03C71.8271 10.07 71.9971 10.13 72.2304 10.21C72.4637 10.29 72.7737 10.33 73.1604 10.33Z" fill="white"/>
<rect x="0.25" y="0.25" width="80.5" height="13.5" rx="6.75" stroke="#6A00A7" stroke-width="0.5"/>
</svg>
