<svg width="21" height="21" viewBox="0 0 21 21" fill="none" xmlns="http://www.w3.org/2000/svg">
<path d="M19.8971 10.4825C19.8971 8.62729 19.3462 6.81378 18.314 5.27126C17.2819 3.72874 15.8149 2.52649 14.0985 1.81655C12.3821 1.1066 10.4934 0.92085 8.67125 1.28278C6.84912 1.6447 5.1754 2.53805 3.86172 3.84986C2.54804 5.16166 1.65341 6.833 1.29097 8.65253C0.928524 10.4721 1.11454 12.358 1.8255 14.072C2.53646 15.786 3.74042 17.2509 5.28515 18.2816C6.82987 19.3123 8.64597 19.8624 10.5038 19.8624C12.9938 19.8582 15.3806 18.8687 17.1413 17.1105C18.902 15.3523 19.893 12.9689 19.8971 10.4825Z" fill="url(#paint0_linear_621_98)"/>
<path d="M12.5692 18.9038C7.91297 20.0449 3.21196 17.2008 2.06915 12.5513C0.926346 7.90176 3.7745 3.20746 8.43068 2.06628C13.0869 0.925106 17.7879 3.7692 18.9307 8.41874C20.0735 13.0683 17.2253 17.7626 12.5692 18.9038Z" fill="url(#paint1_linear_621_98)"/>
<path fill-rule="evenodd" clip-rule="evenodd" d="M13.3921 8.12369C13.3644 8.12369 13.3359 8.11753 13.3097 8.10445C13.2466 8.0729 13.2074 8.00903 13.2074 7.93901V7.28187H12.7603C12.658 7.28187 12.5756 7.19953 12.5756 7.09719V4.18468C12.5756 4.08234 12.658 4 12.7603 4H16.6347C16.737 4 16.8194 4.08234 16.8194 4.18468V7.09719C16.8194 7.19953 16.737 7.28187 16.6347 7.28187H14.564L13.5036 8.08598C13.4713 8.1106 13.4321 8.12369 13.3921 8.12369ZM12.9458 6.91251H13.3928C13.4952 6.91251 13.5775 6.99485 13.5775 7.09719V7.56658L14.3909 6.94945C14.4232 6.92482 14.4624 6.91174 14.5024 6.91174H16.45V4.36935H12.9458V6.91251ZM13.6508 4.91469V4.88568C13.6508 4.78334 13.7331 4.701 13.8355 4.701C13.9378 4.701 14.0201 4.78334 14.0201 4.88568V4.91962C14.0497 4.92728 14.0779 4.93677 14.1047 4.94806C14.1924 4.98422 14.2617 5.0404 14.3094 5.1135C14.3356 5.15274 14.3548 5.19506 14.3679 5.24046C14.3817 5.28817 14.3733 5.33819 14.3448 5.37897C14.3171 5.41975 14.2717 5.44515 14.2225 5.44899H14.2201C14.1424 5.45438 14.0732 5.40667 14.0509 5.33126C14.0409 5.2974 14.0239 5.27124 14.0008 5.252C13.9654 5.22276 13.9077 5.20814 13.8285 5.20814C13.7461 5.20814 13.6861 5.22123 13.6546 5.24662C13.6269 5.26893 13.6146 5.29125 13.6146 5.31895C13.6146 5.34203 13.6207 5.35742 13.6369 5.37204C13.643 5.37743 13.68 5.40513 13.857 5.44515C14.0001 5.47746 14.1009 5.50671 14.1571 5.5321C14.2455 5.57288 14.3125 5.62675 14.3563 5.69215C14.401 5.7591 14.4241 5.83528 14.4225 5.92146C14.4225 6.00533 14.3987 6.08536 14.351 6.15923C14.3033 6.23233 14.2348 6.29004 14.1478 6.33006C14.1077 6.34848 14.065 6.36249 14.0202 6.3721V6.39696C14.0202 6.4993 13.9378 6.58164 13.8355 6.58164C13.7331 6.58164 13.6508 6.4993 13.6508 6.39696V6.3655C13.6115 6.35645 13.575 6.34463 13.5415 6.33006C13.4484 6.29004 13.3737 6.22848 13.3206 6.14692C13.2875 6.0969 13.2644 6.04227 13.2506 5.98456C13.2398 5.93762 13.2491 5.88837 13.2775 5.84913C13.306 5.80988 13.3491 5.78526 13.3968 5.78141C13.4768 5.77449 13.5492 5.82604 13.5707 5.90299C13.5784 5.92915 13.5876 5.95147 13.5999 5.96917C13.6184 5.99687 13.65 6.02072 13.6938 6.03996C13.7415 6.06074 13.7969 6.07151 13.8585 6.07151C13.9131 6.07151 13.9608 6.06381 14.0008 6.04842C14.0347 6.03534 14.0601 6.01841 14.0747 5.99764C14.0886 5.9784 14.0955 5.95762 14.0955 5.93531C14.0955 5.91376 14.0893 5.8953 14.0778 5.87991C14.0639 5.86221 14.0362 5.84528 13.9978 5.83066C13.9762 5.82219 13.9208 5.80527 13.7792 5.77141C13.6553 5.7414 13.5653 5.71216 13.5122 5.68369C13.4384 5.64444 13.3822 5.5952 13.3445 5.53518C13.306 5.47439 13.2868 5.4059 13.2868 5.33126C13.2868 5.25124 13.3098 5.17429 13.3552 5.10503C13.4014 5.03501 13.4676 4.98114 13.5538 4.94575C13.5847 4.93297 13.6171 4.9226 13.6508 4.91469ZM15.9728 5.13425H14.884C14.7817 5.13425 14.6993 5.05192 14.6993 4.94958C14.6993 4.84723 14.7817 4.7649 14.884 4.7649H15.9728C16.0752 4.7649 16.1575 4.84723 16.1575 4.94958C16.1575 5.05192 16.0752 5.13425 15.9728 5.13425ZM14.8839 5.82601H15.9727C16.0751 5.82601 16.1574 5.74368 16.1574 5.64134C16.1574 5.53899 16.0751 5.45666 15.9727 5.45666H14.8839C14.7816 5.45666 14.6992 5.53899 14.6992 5.64134C14.6992 5.74368 14.7816 5.82601 14.8839 5.82601ZM14.8839 6.51782H15.9727C16.0751 6.51782 16.1574 6.43548 16.1574 6.33314C16.1574 6.2308 16.0751 6.14846 15.9727 6.14846H14.8839C14.7816 6.14846 14.6992 6.2308 14.6992 6.33314C14.6992 6.43548 14.7816 6.51782 14.8839 6.51782ZM7.11565 6.44087C7.12871 6.64762 7.14339 6.88015 7.22785 7.09667V7.94517C7.22785 8.54998 7.441 9.11864 7.82882 9.54801C7.84988 9.57128 7.87133 9.59401 7.89317 9.61618L7.69753 10.142C7.48023 10.1445 7.20825 10.1778 6.91476 10.2841C6.90482 10.2868 6.89506 10.2904 6.88557 10.2949C6.77667 10.3359 6.66498 10.3871 6.55218 10.4506C6.01354 10.753 5.71344 11.1916 5.60956 11.3655C5.48567 11.5717 5.39256 11.7957 5.31561 12.0704C5.02475 13.1076 4.99782 14.7205 5.00012 15.3653C5.00012 15.4669 5.08323 15.5492 5.1848 15.5492H6.70091L6.70672 15.5493L6.71249 15.5492H8.59531C8.60096 15.5497 8.60661 15.55 8.61226 15.55C8.618 15.55 8.62369 15.5497 8.62932 15.5492H9.87546C9.88111 15.5497 9.88683 15.55 9.8926 15.55C9.89825 15.55 9.9039 15.5497 9.90955 15.5492H11.8683L11.8737 15.5493L11.879 15.5492H13.396C13.4976 15.5492 13.5799 15.4669 13.5807 15.3645C13.5822 14.7189 13.5553 13.1061 13.2652 12.0696C13.1882 11.7957 13.0944 11.5717 12.9713 11.3647C12.8666 11.1908 12.5665 10.7522 12.0286 10.4498C11.6015 10.2097 11.1892 10.1451 10.8844 10.1412L10.7031 9.62323C10.7276 9.59859 10.7517 9.57326 10.7752 9.54724C11.163 9.11787 11.3762 8.54921 11.3762 7.9444V7.11808C11.4102 7.06349 11.4626 6.96838 11.5554 6.78937C11.5607 6.77927 11.5652 6.77092 11.5686 6.76476L11.5686 6.76469L11.5686 6.76464L11.5739 6.75474C11.6693 6.5793 11.7763 6.34461 11.7524 6.07759C11.7263 5.78827 11.5531 5.49971 11.4 5.32657C11.338 5.25616 11.2699 5.2025 11.2048 5.15119L11.2038 5.15036C11.1445 5.10419 11.0899 5.0611 11.0476 5.01108C11.0147 4.97219 10.9927 4.91586 10.9674 4.85126L10.9652 4.84564C10.9406 4.78024 10.9114 4.70637 10.866 4.63557C10.776 4.49707 10.6282 4.39549 10.4389 4.3424C10.2943 4.30239 10.1288 4.27468 9.93413 4.26006C9.65712 4.23852 9.35779 4.26468 9.04537 4.33624C8.88609 4.37318 8.06428 4.58325 7.56719 5.1142C7.53641 5.14728 7.5064 5.18191 7.47793 5.21654C7.29556 5.43969 7.18475 5.63822 7.14089 5.82366C7.09011 6.03681 7.10396 6.25919 7.1155 6.43848L7.11565 6.44087ZM8.04722 10.262L8.1933 9.86944C8.28699 9.9345 8.3855 9.99137 8.48827 10.0397C8.74528 10.1605 9.01922 10.2213 9.30162 10.2213C9.58402 10.2213 9.85796 10.1605 10.1157 10.0389C10.2149 9.99245 10.3098 9.93808 10.4002 9.87612L10.5333 10.2565L9.25539 11.1416L8.04722 10.262ZM10.3726 9.42733C10.7587 9.07742 11.006 8.54289 11.006 7.94517V7.16029C10.8783 7.06949 10.7575 6.96022 10.6782 6.88481C10.3297 7.03563 9.97261 7.12874 9.61557 7.1626C9.29623 7.19261 8.9769 7.17568 8.66602 7.11258C8.32976 7.04333 8.07583 6.93406 7.93116 6.86096C7.79573 6.99793 7.67338 7.09719 7.59721 7.15567V7.94517C7.59721 8.99629 8.36208 9.85196 9.30162 9.85196C9.7008 9.85196 10.0684 9.6975 10.3593 9.43923C10.3635 9.43507 10.3679 9.4311 10.3726 9.42733ZM11.2276 6.61931C11.1896 6.69299 11.1595 6.75028 11.1356 6.79474C10.9898 6.67843 10.8653 6.54911 10.8538 6.53712L10.8538 6.53712L10.8529 6.53623C10.7975 6.47852 10.7121 6.46236 10.6398 6.49622C10.0149 6.79093 9.38165 6.87712 8.75682 6.75323C8.28744 6.66012 7.99888 6.47621 7.99657 6.47467C7.92039 6.42466 7.81959 6.43774 7.7588 6.50545C7.67192 6.60186 7.58742 6.68224 7.51566 6.74513C7.49809 6.63771 7.49096 6.52483 7.48408 6.41386C7.47331 6.2515 7.46254 6.06682 7.50024 5.90754C7.53025 5.7798 7.61951 5.62514 7.76418 5.44815C7.78726 5.41968 7.81189 5.39121 7.83728 5.36428C8.16585 5.01339 8.73835 4.78409 9.12848 4.69406C9.40396 4.63096 9.66558 4.60787 9.90566 4.62634C10.0765 4.63942 10.2181 4.66251 10.3389 4.69636C10.4097 4.71637 10.5043 4.75638 10.5551 4.83487C10.5804 4.87315 10.5995 4.92285 10.6202 4.9764L10.6202 4.9764L10.6205 4.97723C10.6536 5.06341 10.6913 5.16113 10.7652 5.24809C10.8303 5.32462 10.9052 5.38399 10.9714 5.43648L10.9745 5.43892C11.0299 5.48278 11.0822 5.52433 11.123 5.5705C11.2407 5.70362 11.3677 5.92216 11.3846 6.11068C11.4 6.27766 11.3207 6.44772 11.25 6.57699L11.2423 6.59152L11.2276 6.61931ZM11.689 15.1799H10.0537L9.67039 12.3813L9.87886 12.0338L10.0294 12.1397C10.0617 12.1627 10.0987 12.1735 10.1356 12.1735C10.1864 12.1735 10.2356 12.1535 10.2718 12.1143L11.6109 10.6578C11.6884 10.6892 11.7674 10.7267 11.847 10.7715C12.3072 11.0308 12.5642 11.4048 12.6535 11.554C12.7612 11.7341 12.8404 11.9242 12.9089 12.1696C13.1659 13.0861 13.2059 14.5381 13.2106 15.1799H12.0584V13.2262C12.0584 13.1239 11.976 13.0415 11.8737 13.0415C11.7713 13.0415 11.689 13.1239 11.689 13.2262V15.1799ZM9.1869 12.5267H9.31796L9.68135 15.1799H9.28002H8.82351L9.1869 12.5267ZM8.45116 15.1799H6.89139V13.2262C6.89139 13.1239 6.80906 13.0415 6.70672 13.0415C6.60438 13.0415 6.52204 13.1239 6.52204 13.2262V15.1799H5.37025C5.37487 14.5389 5.41488 13.0869 5.67189 12.1696C5.74114 11.9242 5.81963 11.7341 5.92736 11.554C6.01585 11.4055 6.27286 11.0308 6.73378 10.7715C6.79459 10.7373 6.85503 10.7073 6.91472 10.6811L8.2325 12.1137C8.26867 12.1537 8.31868 12.1737 8.3687 12.1737C8.40564 12.1737 8.44257 12.163 8.47489 12.1399L8.64129 12.0229L8.83509 12.3767L8.45116 15.1799ZM8.58777 11.6095C8.59434 11.6042 8.60136 11.5993 8.60879 11.5948L8.93499 11.3655L7.76336 10.5106C7.6335 10.5083 7.4754 10.5183 7.3012 10.5559L8.39486 11.7451L8.58777 11.6095ZM9.25232 11.5934L8.94556 11.809L9.13619 12.1566H9.37473L9.57618 11.821L9.25232 11.5934ZM9.91799 11.6103C9.92625 11.6152 9.93397 11.6207 9.94115 11.6266L10.1094 11.7449L11.2149 10.5429C11.0652 10.5156 10.9292 10.5083 10.8151 10.5106L9.5753 11.3695L9.91741 11.6099L9.91799 11.6103Z" fill="url(#paint2_linear_621_98)"/>
<defs>
<linearGradient id="paint0_linear_621_98" x1="3.85019" y1="3.84877" x2="17.1202" y2="17.1377" gradientUnits="userSpaceOnUse">
<stop stop-color="#FCFCFC"/>
<stop offset="1" stop-color="#E6E6E6"/>
</linearGradient>
<linearGradient id="paint1_linear_621_98" x1="16.3581" y1="16.3398" x2="0.719765" y2="0.676447" gradientUnits="userSpaceOnUse">
<stop stop-color="#FCFCFC"/>
<stop offset="1" stop-color="#E6E6E6"/>
</linearGradient>
<linearGradient id="paint2_linear_621_98" x1="16.8194" y1="13.892" x2="5" y2="13.892" gradientUnits="userSpaceOnUse">
<stop stop-color="#00CDCD"/>
<stop offset="1" stop-color="#6A00A7"/>
</linearGradient>
</defs>
</svg>
