<svg width="81" height="15" viewBox="0 0 81 15" fill="none" xmlns="http://www.w3.org/2000/svg">
<path d="M32.4938 5.3C32.2138 6.19333 31.9304 7.02 31.6438 7.78C31.3571 8.54 31.0704 9.28 30.7837 10H29.8138C29.4604 8.98 29.1471 7.90333 28.8738 6.77C28.6071 5.63667 28.3571 4.40333 28.1238 3.07H29.1438C29.2371 3.59 29.3338 4.11 29.4338 4.63C29.5338 5.15 29.6371 5.65667 29.7438 6.15C29.8504 6.63667 29.9571 7.10333 30.0638 7.55C30.1704 7.99667 30.2804 8.41 30.3938 8.79C30.6604 8.09 30.9438 7.32333 31.2438 6.49C31.5438 5.65 31.8238 4.78333 32.0838 3.89H32.9238C33.1838 4.78333 33.4671 5.65 33.7738 6.49C34.0804 7.32333 34.3671 8.09 34.6338 8.79C34.7404 8.41667 34.8471 8.00667 34.9538 7.56C35.0604 7.11333 35.1638 6.64667 35.2638 6.16C35.3704 5.66667 35.4738 5.16 35.5738 4.64C35.6738 4.11333 35.7704 3.59 35.8638 3.07H36.8538C36.6138 4.40333 36.3571 5.63667 36.0838 6.77C35.8171 7.90333 35.5104 8.98 35.1638 10H34.1938C33.9004 9.28 33.6138 8.54 33.3338 7.78C33.0538 7.02 32.7738 6.19333 32.4938 5.3ZM37.4163 7.41C37.4163 6.95 37.4829 6.55 37.6163 6.21C37.7496 5.86333 37.9263 5.57667 38.1463 5.35C38.3663 5.12333 38.6196 4.95333 38.9063 4.84C39.1929 4.72667 39.4863 4.67 39.7863 4.67C40.4863 4.67 41.0229 4.89 41.3963 5.33C41.7696 5.76333 41.9562 6.42667 41.9562 7.32C41.9562 7.36 41.9562 7.41333 41.9562 7.48C41.9562 7.54 41.9529 7.59667 41.9463 7.65H38.3863C38.4263 8.19 38.5829 8.6 38.8563 8.88C39.1296 9.16 39.5563 9.3 40.1363 9.3C40.4629 9.3 40.7363 9.27333 40.9563 9.22C41.1829 9.16 41.3529 9.10333 41.4663 9.05L41.5963 9.83C41.4829 9.89 41.2829 9.95333 40.9963 10.02C40.7163 10.0867 40.3963 10.12 40.0363 10.12C39.5829 10.12 39.1896 10.0533 38.8563 9.92C38.5296 9.78 38.2596 9.59 38.0463 9.35C37.8329 9.11 37.6729 8.82667 37.5662 8.5C37.4663 8.16667 37.4163 7.80333 37.4163 7.41ZM40.9863 6.9C40.9929 6.48 40.8863 6.13667 40.6663 5.87C40.4529 5.59667 40.1563 5.46 39.7763 5.46C39.5629 5.46 39.3729 5.50333 39.2063 5.59C39.0463 5.67 38.9096 5.77667 38.7963 5.91C38.6829 6.04333 38.5929 6.19667 38.5263 6.37C38.4663 6.54333 38.4263 6.72 38.4063 6.9H40.9863ZM44.2222 5.03C44.3355 4.95667 44.5055 4.88 44.7322 4.8C44.9655 4.72 45.2322 4.68 45.5322 4.68C45.9055 4.68 46.2355 4.74667 46.5222 4.88C46.8155 5.01333 47.0622 5.2 47.2622 5.44C47.4622 5.68 47.6122 5.96667 47.7122 6.3C47.8189 6.63333 47.8722 7 47.8722 7.4C47.8722 7.82 47.8089 8.2 47.6822 8.54C47.5622 8.87333 47.3889 9.15667 47.1622 9.39C46.9355 9.62333 46.6622 9.80333 46.3422 9.93C46.0222 10.0567 45.6622 10.12 45.2622 10.12C44.8289 10.12 44.4455 10.09 44.1122 10.03C43.7789 9.97 43.5055 9.91 43.2922 9.85V2.4L44.2222 2.24V5.03ZM44.2222 9.19C44.3155 9.21667 44.4455 9.24333 44.6122 9.27C44.7855 9.29 44.9989 9.3 45.2522 9.3C45.7522 9.3 46.1522 9.13667 46.4522 8.81C46.7522 8.47667 46.9022 8.00667 46.9022 7.4C46.9022 7.13333 46.8755 6.88333 46.8222 6.65C46.7689 6.41667 46.6822 6.21667 46.5622 6.05C46.4422 5.87667 46.2855 5.74333 46.0922 5.65C45.9055 5.55 45.6789 5.5 45.4122 5.5C45.1589 5.5 44.9255 5.54333 44.7122 5.63C44.4989 5.71667 44.3355 5.80667 44.2222 5.9V9.19ZM50.3909 9.33C50.7709 9.33 51.0509 9.28 51.2309 9.18C51.4175 9.08 51.5109 8.92 51.5109 8.7C51.5109 8.47333 51.4209 8.29333 51.2409 8.16C51.0609 8.02667 50.7642 7.87667 50.3509 7.71C50.1509 7.63 49.9575 7.55 49.7709 7.47C49.5909 7.38333 49.4342 7.28333 49.3009 7.17C49.1675 7.05667 49.0609 6.92 48.9809 6.76C48.9009 6.6 48.8609 6.40333 48.8609 6.17C48.8609 5.71 49.0309 5.34667 49.3709 5.08C49.7109 4.80667 50.1742 4.67 50.7609 4.67C50.9075 4.67 51.0542 4.68 51.2009 4.7C51.3475 4.71333 51.4842 4.73333 51.6109 4.76C51.7375 4.78 51.8475 4.80333 51.9409 4.83C52.0409 4.85667 52.1175 4.88 52.1709 4.9L52.0009 5.7C51.9009 5.64667 51.7442 5.59333 51.5309 5.54C51.3175 5.48 51.0609 5.45 50.7609 5.45C50.5009 5.45 50.2742 5.50333 50.0809 5.61C49.8875 5.71 49.7909 5.87 49.7909 6.09C49.7909 6.20333 49.8109 6.30333 49.8509 6.39C49.8975 6.47667 49.9642 6.55667 50.0509 6.63C50.1442 6.69667 50.2575 6.76 50.3909 6.82C50.5242 6.88 50.6842 6.94333 50.8709 7.01C51.1175 7.10333 51.3375 7.19667 51.5309 7.29C51.7242 7.37667 51.8875 7.48 52.0209 7.6C52.1609 7.72 52.2675 7.86667 52.3409 8.04C52.4142 8.20667 52.4509 8.41333 52.4509 8.66C52.4509 9.14 52.2709 9.50333 51.9109 9.75C51.5575 9.99667 51.0509 10.12 50.3909 10.12C49.9309 10.12 49.5709 10.08 49.3109 10C49.0509 9.92667 48.8742 9.87 48.7809 9.83L48.9509 9.03C49.0575 9.07 49.2275 9.13 49.4609 9.21C49.6942 9.29 50.0042 9.33 50.3909 9.33ZM54.5738 10H53.6438V4.8H54.5738V10ZM54.1038 3.86C53.9371 3.86 53.7938 3.80667 53.6738 3.7C53.5604 3.58667 53.5037 3.43667 53.5037 3.25C53.5037 3.06333 53.5604 2.91667 53.6738 2.81C53.7938 2.69667 53.9371 2.64 54.1038 2.64C54.2704 2.64 54.4104 2.69667 54.5238 2.81C54.6438 2.91667 54.7038 3.06333 54.7038 3.25C54.7038 3.43667 54.6438 3.58667 54.5238 3.7C54.4104 3.80667 54.2704 3.86 54.1038 3.86ZM57.043 4.8H59.013V5.58H57.043V7.98C57.043 8.24 57.063 8.45667 57.103 8.63C57.143 8.79667 57.203 8.93 57.283 9.03C57.363 9.12333 57.463 9.19 57.583 9.23C57.703 9.27 57.843 9.29 58.003 9.29C58.283 9.29 58.5064 9.26 58.673 9.2C58.8464 9.13333 58.9664 9.08667 59.033 9.06L59.213 9.83C59.1197 9.87667 58.9564 9.93333 58.723 10C58.4897 10.0733 58.223 10.11 57.923 10.11C57.5697 10.11 57.2764 10.0667 57.043 9.98C56.8164 9.88667 56.633 9.75 56.493 9.57C56.353 9.39 56.253 9.17 56.193 8.91C56.1397 8.64333 56.113 8.33667 56.113 7.99V3.35L57.043 3.19V4.8ZM59.8088 7.41C59.8088 6.95 59.8755 6.55 60.0088 6.21C60.1422 5.86333 60.3188 5.57667 60.5388 5.35C60.7588 5.12333 61.0122 4.95333 61.2988 4.84C61.5855 4.72667 61.8788 4.67 62.1788 4.67C62.8788 4.67 63.4155 4.89 63.7888 5.33C64.1622 5.76333 64.3488 6.42667 64.3488 7.32C64.3488 7.36 64.3488 7.41333 64.3488 7.48C64.3488 7.54 64.3455 7.59667 64.3388 7.65H60.7788C60.8188 8.19 60.9755 8.6 61.2488 8.88C61.5222 9.16 61.9488 9.3 62.5288 9.3C62.8555 9.3 63.1288 9.27333 63.3488 9.22C63.5755 9.16 63.7455 9.10333 63.8588 9.05L63.9888 9.83C63.8755 9.89 63.6755 9.95333 63.3888 10.02C63.1088 10.0867 62.7888 10.12 62.4288 10.12C61.9755 10.12 61.5822 10.0533 61.2488 9.92C60.9222 9.78 60.6522 9.59 60.4388 9.35C60.2255 9.11 60.0655 8.82667 59.9588 8.5C59.8588 8.16667 59.8088 7.80333 59.8088 7.41ZM63.3788 6.9C63.3855 6.48 63.2788 6.13667 63.0588 5.87C62.8455 5.59667 62.5488 5.46 62.1688 5.46C61.9555 5.46 61.7655 5.50333 61.5988 5.59C61.4388 5.67 61.3022 5.77667 61.1888 5.91C61.0755 6.04333 60.9855 6.19667 60.9188 6.37C60.8588 6.54333 60.8188 6.72 60.7988 6.9H63.3788Z" fill="white"/>
<g clip-path="url(#clip0_622_5)">
<mask id="path-2-outside-1_622_5" maskUnits="userSpaceOnUse" x="9.125" y="2.7334" width="13" height="9" fill="black">
<rect fill="white" x="9.125" y="2.7334" width="13" height="9"/>
<path fill-rule="evenodd" clip-rule="evenodd" d="M20.0765 3.7334H20.6599C21.1317 3.7334 21.5156 4.03673 21.5156 4.40956V9.92301C21.5156 10.2958 21.1317 10.5992 20.6599 10.5992H19.1991C19.107 10.5992 19.0323 10.5402 19.0323 10.4673C19.0323 10.3945 19.107 10.3355 19.1991 10.3355H20.6599C20.9477 10.3355 21.1819 10.1505 21.1819 9.92301V5.49926H10.4587V6.48575C10.4587 6.55857 10.384 6.61758 10.2919 6.61758C10.1997 6.61758 10.125 6.55857 10.125 6.48575V4.40956C10.125 4.03673 10.5089 3.7334 10.9808 3.7334H19.3048C19.397 3.7334 19.4717 3.79241 19.4717 3.86523C19.4717 3.93806 19.397 3.99707 19.3048 3.99707H10.9808C10.6929 3.99707 10.4587 4.18212 10.4587 4.40956V5.23557H21.1819V4.40956C21.1819 4.1821 20.9477 3.99707 20.6599 3.99707H20.0765C19.9843 3.99707 19.9096 3.93806 19.9096 3.86523C19.9096 3.79241 19.9843 3.7334 20.0765 3.7334ZM16.2546 10.3355H18.3996C18.4918 10.3355 18.5665 10.3946 18.5665 10.4674C18.5665 10.5402 18.4918 10.5992 18.3996 10.5992H16.5883L16.6034 10.6112H16.6035C16.7119 10.6968 16.7119 10.8362 16.6035 10.9219L16.2488 11.2021C16.1946 11.2449 16.1234 11.2663 16.0522 11.2663C15.981 11.2663 15.9098 11.2449 15.8556 11.2021L15.2823 10.7491L14.7191 11.1941C14.6573 11.243 14.5692 11.2634 14.4837 11.2487C14.3982 11.2339 14.3289 11.1865 14.2984 11.1216L14.0523 10.5992H10.9808C10.5089 10.5992 10.125 10.2959 10.125 9.92303V7.07903C10.125 7.0062 10.1997 6.94719 10.2919 6.94719C10.384 6.94719 10.4587 7.0062 10.4587 7.07903V9.92303C10.4587 10.1505 10.6929 10.3355 10.9808 10.3355H13.9281L13.2044 8.79891C13.1659 8.71736 13.1905 8.62845 13.2683 8.56691C13.3462 8.50534 13.4588 8.48598 13.562 8.51634L16.5017 9.3808C16.5837 9.4049 16.6438 9.45962 16.6624 9.52717C16.6811 9.59474 16.6552 9.66428 16.5934 9.71318L16.0302 10.1582L16.2546 10.3355ZM15.4003 10.4694L16.0522 10.9845L16.3281 10.7665L15.6762 10.2514C15.611 10.1999 15.611 10.1165 15.6762 10.065L16.2716 9.59449L13.5595 8.79696L14.5689 10.9399L15.1643 10.4694C15.1969 10.4437 15.2396 10.4308 15.2823 10.4308C15.325 10.4308 15.3677 10.4437 15.4003 10.4694ZM11.2307 4.61634C11.2307 4.75122 11.3691 4.86055 11.5398 4.86055C11.7104 4.86055 11.8488 4.75122 11.8488 4.61634C11.8488 4.48146 11.7104 4.37214 11.5398 4.37214C11.3691 4.37214 11.2307 4.48146 11.2307 4.61634ZM12.4905 4.86055C12.3198 4.86055 12.1814 4.75122 12.1814 4.61634C12.1814 4.48146 12.3198 4.37214 12.4905 4.37214C12.6611 4.37214 12.7995 4.48146 12.7995 4.61634C12.7995 4.75122 12.6611 4.86055 12.4905 4.86055ZM13.1321 4.61634C13.1321 4.75122 13.2705 4.86055 13.4412 4.86055C13.6118 4.86055 13.7502 4.75122 13.7502 4.61634C13.7502 4.48146 13.6118 4.37214 13.4412 4.37214C13.2705 4.37214 13.1321 4.48146 13.1321 4.61634ZM12.1685 8.40176H12.1676C12.0966 8.40142 12.0337 8.36574 12.0107 8.31276L11.4621 7.05132C11.4321 6.98247 11.4785 6.90746 11.5657 6.8838C11.6528 6.86007 11.7477 6.89675 11.7777 6.96563L12.1714 7.87085L12.5852 6.95318C12.6318 6.83794 12.8557 6.83901 12.9003 6.95487L13.2939 7.86656L13.6946 6.96341C13.7251 6.89468 13.8204 6.8585 13.9073 6.88259C13.9943 6.90669 14.04 6.98192 14.0096 7.05062L13.4493 8.31353C13.4258 8.36641 13.3627 8.40178 13.2918 8.40178H13.2911C13.22 8.40153 13.1569 8.36569 13.1339 8.31251L12.739 7.3978L12.3257 8.31418C12.302 8.36671 12.239 8.40176 12.1685 8.40176ZM15.2547 8.40176H15.2557C15.3262 8.40176 15.3892 8.36671 15.4128 8.31419L15.8262 7.39781L16.2211 8.31252C16.2441 8.36569 16.3072 8.40154 16.3783 8.40178H16.379C16.4499 8.40178 16.513 8.36641 16.5365 8.31354L17.0967 7.05062C17.1272 6.98193 17.0814 6.90669 16.9945 6.88259C16.9076 6.85851 16.8123 6.89469 16.7818 6.96342L16.3811 7.86656L15.9875 6.95487C15.9429 6.839 15.7189 6.83794 15.6724 6.95319L15.2585 7.87085L14.8649 6.96565C14.8349 6.89678 14.74 6.86009 14.6528 6.88382C14.5657 6.90748 14.5193 6.98249 14.5493 7.05134L15.0979 8.31278C15.1209 8.36575 15.1839 8.40143 15.2547 8.40176ZM18.2927 8.40176H18.2917C18.2208 8.40142 18.1579 8.36574 18.1349 8.31278L17.5862 7.05134C17.5563 6.98248 17.6026 6.90748 17.6898 6.88382C17.7771 6.86012 17.8719 6.89679 17.9018 6.96564L18.2955 7.87085L18.7094 6.95318C18.7559 6.83794 18.9799 6.83901 19.0245 6.95487L19.4181 7.86656L19.8187 6.96341C19.8492 6.89468 19.9445 6.8585 20.0314 6.88259C20.1184 6.90669 20.1642 6.98192 20.1337 7.05062L19.5734 8.31353C19.55 8.36641 19.4868 8.40178 19.416 8.40178H19.4153C19.3442 8.40153 19.281 8.36569 19.2581 8.31251L18.8631 7.3978L18.4498 8.31418C18.4261 8.36671 18.3632 8.40176 18.2927 8.40176Z"/>
</mask>
<path fill-rule="evenodd" clip-rule="evenodd" d="M20.0765 3.7334H20.6599C21.1317 3.7334 21.5156 4.03673 21.5156 4.40956V9.92301C21.5156 10.2958 21.1317 10.5992 20.6599 10.5992H19.1991C19.107 10.5992 19.0323 10.5402 19.0323 10.4673C19.0323 10.3945 19.107 10.3355 19.1991 10.3355H20.6599C20.9477 10.3355 21.1819 10.1505 21.1819 9.92301V5.49926H10.4587V6.48575C10.4587 6.55857 10.384 6.61758 10.2919 6.61758C10.1997 6.61758 10.125 6.55857 10.125 6.48575V4.40956C10.125 4.03673 10.5089 3.7334 10.9808 3.7334H19.3048C19.397 3.7334 19.4717 3.79241 19.4717 3.86523C19.4717 3.93806 19.397 3.99707 19.3048 3.99707H10.9808C10.6929 3.99707 10.4587 4.18212 10.4587 4.40956V5.23557H21.1819V4.40956C21.1819 4.1821 20.9477 3.99707 20.6599 3.99707H20.0765C19.9843 3.99707 19.9096 3.93806 19.9096 3.86523C19.9096 3.79241 19.9843 3.7334 20.0765 3.7334ZM16.2546 10.3355H18.3996C18.4918 10.3355 18.5665 10.3946 18.5665 10.4674C18.5665 10.5402 18.4918 10.5992 18.3996 10.5992H16.5883L16.6034 10.6112H16.6035C16.7119 10.6968 16.7119 10.8362 16.6035 10.9219L16.2488 11.2021C16.1946 11.2449 16.1234 11.2663 16.0522 11.2663C15.981 11.2663 15.9098 11.2449 15.8556 11.2021L15.2823 10.7491L14.7191 11.1941C14.6573 11.243 14.5692 11.2634 14.4837 11.2487C14.3982 11.2339 14.3289 11.1865 14.2984 11.1216L14.0523 10.5992H10.9808C10.5089 10.5992 10.125 10.2959 10.125 9.92303V7.07903C10.125 7.0062 10.1997 6.94719 10.2919 6.94719C10.384 6.94719 10.4587 7.0062 10.4587 7.07903V9.92303C10.4587 10.1505 10.6929 10.3355 10.9808 10.3355H13.9281L13.2044 8.79891C13.1659 8.71736 13.1905 8.62845 13.2683 8.56691C13.3462 8.50534 13.4588 8.48598 13.562 8.51634L16.5017 9.3808C16.5837 9.4049 16.6438 9.45962 16.6624 9.52717C16.6811 9.59474 16.6552 9.66428 16.5934 9.71318L16.0302 10.1582L16.2546 10.3355ZM15.4003 10.4694L16.0522 10.9845L16.3281 10.7665L15.6762 10.2514C15.611 10.1999 15.611 10.1165 15.6762 10.065L16.2716 9.59449L13.5595 8.79696L14.5689 10.9399L15.1643 10.4694C15.1969 10.4437 15.2396 10.4308 15.2823 10.4308C15.325 10.4308 15.3677 10.4437 15.4003 10.4694ZM11.2307 4.61634C11.2307 4.75122 11.3691 4.86055 11.5398 4.86055C11.7104 4.86055 11.8488 4.75122 11.8488 4.61634C11.8488 4.48146 11.7104 4.37214 11.5398 4.37214C11.3691 4.37214 11.2307 4.48146 11.2307 4.61634ZM12.4905 4.86055C12.3198 4.86055 12.1814 4.75122 12.1814 4.61634C12.1814 4.48146 12.3198 4.37214 12.4905 4.37214C12.6611 4.37214 12.7995 4.48146 12.7995 4.61634C12.7995 4.75122 12.6611 4.86055 12.4905 4.86055ZM13.1321 4.61634C13.1321 4.75122 13.2705 4.86055 13.4412 4.86055C13.6118 4.86055 13.7502 4.75122 13.7502 4.61634C13.7502 4.48146 13.6118 4.37214 13.4412 4.37214C13.2705 4.37214 13.1321 4.48146 13.1321 4.61634ZM12.1685 8.40176H12.1676C12.0966 8.40142 12.0337 8.36574 12.0107 8.31276L11.4621 7.05132C11.4321 6.98247 11.4785 6.90746 11.5657 6.8838C11.6528 6.86007 11.7477 6.89675 11.7777 6.96563L12.1714 7.87085L12.5852 6.95318C12.6318 6.83794 12.8557 6.83901 12.9003 6.95487L13.2939 7.86656L13.6946 6.96341C13.7251 6.89468 13.8204 6.8585 13.9073 6.88259C13.9943 6.90669 14.04 6.98192 14.0096 7.05062L13.4493 8.31353C13.4258 8.36641 13.3627 8.40178 13.2918 8.40178H13.2911C13.22 8.40153 13.1569 8.36569 13.1339 8.31251L12.739 7.3978L12.3257 8.31418C12.302 8.36671 12.239 8.40176 12.1685 8.40176ZM15.2547 8.40176H15.2557C15.3262 8.40176 15.3892 8.36671 15.4128 8.31419L15.8262 7.39781L16.2211 8.31252C16.2441 8.36569 16.3072 8.40154 16.3783 8.40178H16.379C16.4499 8.40178 16.513 8.36641 16.5365 8.31354L17.0967 7.05062C17.1272 6.98193 17.0814 6.90669 16.9945 6.88259C16.9076 6.85851 16.8123 6.89469 16.7818 6.96342L16.3811 7.86656L15.9875 6.95487C15.9429 6.839 15.7189 6.83794 15.6724 6.95319L15.2585 7.87085L14.8649 6.96565C14.8349 6.89678 14.74 6.86009 14.6528 6.88382C14.5657 6.90748 14.5193 6.98249 14.5493 7.05134L15.0979 8.31278C15.1209 8.36575 15.1839 8.40143 15.2547 8.40176ZM18.2927 8.40176H18.2917C18.2208 8.40142 18.1579 8.36574 18.1349 8.31278L17.5862 7.05134C17.5563 6.98248 17.6026 6.90748 17.6898 6.88382C17.7771 6.86012 17.8719 6.89679 17.9018 6.96564L18.2955 7.87085L18.7094 6.95318C18.7559 6.83794 18.9799 6.83901 19.0245 6.95487L19.4181 7.86656L19.8187 6.96341C19.8492 6.89468 19.9445 6.8585 20.0314 6.88259C20.1184 6.90669 20.1642 6.98192 20.1337 7.05062L19.5734 8.31353C19.55 8.36641 19.4868 8.40178 19.416 8.40178H19.4153C19.3442 8.40153 19.281 8.36569 19.2581 8.31251L18.8631 7.3978L18.4498 8.31418C18.4261 8.36671 18.3632 8.40176 18.2927 8.40176Z" fill="white"/>
<path d="M21.1819 5.49926H21.2819V5.39926H21.1819V5.49926ZM10.4587 5.49926V5.39926H10.3587V5.49926H10.4587ZM10.4587 5.23557H10.3587V5.33557H10.4587V5.23557ZM21.1819 5.23557V5.33557H21.2819V5.23557H21.1819ZM16.2546 10.3355L16.1926 10.414L16.2199 10.4355H16.2546V10.3355ZM16.5883 10.5992V10.4992H16.3004L16.5263 10.6777L16.5883 10.5992ZM16.6034 10.6112L16.5414 10.6896L16.5687 10.7112H16.6034V10.6112ZM16.6035 10.6112L16.6655 10.5327L16.6382 10.5112H16.6035V10.6112ZM16.6035 10.9219L16.6655 11.0004L16.6655 11.0004L16.6035 10.9219ZM16.2488 11.2021L16.3108 11.2806L16.3108 11.2806L16.2488 11.2021ZM15.8556 11.2021L15.7936 11.2806L15.7936 11.2806L15.8556 11.2021ZM15.2823 10.7491L15.3443 10.6707L15.2823 10.6217L15.2203 10.6707L15.2823 10.7491ZM14.7191 11.1941L14.6571 11.1156L14.6571 11.1157L14.7191 11.1941ZM14.4837 11.2487L14.5007 11.1501L14.5007 11.1501L14.4837 11.2487ZM14.2984 11.1216L14.3889 11.0791L14.3889 11.079L14.2984 11.1216ZM14.0523 10.5992L14.1428 10.5566L14.1158 10.4992H14.0523V10.5992ZM13.9281 10.3355V10.4355H14.0858L14.0186 10.2929L13.9281 10.3355ZM13.2044 8.79891L13.2948 8.7563L13.2948 8.75628L13.2044 8.79891ZM13.2683 8.56691L13.3303 8.64537L13.3304 8.64536L13.2683 8.56691ZM13.562 8.51634L13.5337 8.61227L13.5338 8.61228L13.562 8.51634ZM16.5017 9.3808L16.4735 9.47673L16.4735 9.47674L16.5017 9.3808ZM16.6624 9.52717L16.7588 9.50057L16.7588 9.50057L16.6624 9.52717ZM16.5934 9.71318L16.6554 9.79164L16.6554 9.79163L16.5934 9.71318ZM16.0302 10.1582L15.9682 10.0797L15.8689 10.1582L15.9682 10.2366L16.0302 10.1582ZM16.0522 10.9845L15.9902 11.063L16.0522 11.112L16.1142 11.063L16.0522 10.9845ZM15.4003 10.4694L15.4623 10.3909L15.4623 10.3909L15.4003 10.4694ZM16.3281 10.7665L16.3901 10.845L16.4894 10.7665L16.3901 10.688L16.3281 10.7665ZM15.6762 10.2514L15.7382 10.1729L15.7382 10.1729L15.6762 10.2514ZM15.6762 10.065L15.6142 9.98649L15.6142 9.9865L15.6762 10.065ZM16.2716 9.59449L16.3336 9.67296L16.4853 9.5531L16.2998 9.49856L16.2716 9.59449ZM13.5595 8.79696L13.5877 8.70102L13.3742 8.63823L13.469 8.83957L13.5595 8.79696ZM14.5689 10.9399L14.4784 10.9825L14.532 11.0964L14.6309 11.0183L14.5689 10.9399ZM15.1643 10.4694L15.1023 10.3909L15.1023 10.3909L15.1643 10.4694ZM12.1676 8.40176L12.1671 8.50176H12.1676V8.40176ZM12.0107 8.31276L12.1024 8.2729L12.1024 8.27288L12.0107 8.31276ZM11.4621 7.05132L11.5538 7.01144L11.5538 7.01141L11.4621 7.05132ZM11.5657 6.8838L11.5919 6.98031L11.5919 6.98029L11.5657 6.8838ZM11.7777 6.96563L11.686 7.0055L11.686 7.00551L11.7777 6.96563ZM12.1714 7.87085L12.0797 7.91073L12.1697 8.11776L12.2625 7.91196L12.1714 7.87085ZM12.5852 6.95318L12.6765 6.99433L12.678 6.99061L12.5852 6.95318ZM12.9003 6.95487L12.8069 6.99084L12.8085 6.9945L12.9003 6.95487ZM13.2939 7.86656L13.2021 7.90619L13.2927 8.11596L13.3853 7.90711L13.2939 7.86656ZM13.6946 6.96341L13.6032 6.92285L13.6032 6.92286L13.6946 6.96341ZM13.9073 6.88259L13.8806 6.97895L13.8806 6.97896L13.9073 6.88259ZM14.0096 7.05062L13.9182 7.01006L13.9182 7.01006L14.0096 7.05062ZM13.4493 8.31353L13.5407 8.3541L13.5407 8.35408L13.4493 8.31353ZM13.2911 8.40178L13.2908 8.50178H13.2911V8.40178ZM13.1339 8.31251L13.0421 8.35215L13.0421 8.35215L13.1339 8.31251ZM12.739 7.3978L12.8308 7.35816L12.741 7.15015L12.6478 7.35669L12.739 7.3978ZM12.3257 8.31418L12.2345 8.27307L12.2345 8.2731L12.3257 8.31418ZM15.2547 8.40176L15.2543 8.50176H15.2547V8.40176ZM15.4128 8.31419L15.3217 8.27308L15.3217 8.2731L15.4128 8.31419ZM15.8262 7.39781L15.918 7.35817L15.8282 7.15015L15.735 7.35669L15.8262 7.39781ZM16.2211 8.31252L16.1293 8.35216L16.1293 8.35216L16.2211 8.31252ZM16.3783 8.40178L16.378 8.50178H16.3783V8.40178ZM16.5365 8.31354L16.6279 8.35411L16.6279 8.35409L16.5365 8.31354ZM17.0967 7.05062L17.0053 7.01007L17.0053 7.01007L17.0967 7.05062ZM16.9945 6.88259L16.9677 6.97896L16.9678 6.97896L16.9945 6.88259ZM16.7818 6.96342L16.6904 6.92285L16.6904 6.92286L16.7818 6.96342ZM16.3811 7.86656L16.2893 7.9062L16.3799 8.11597L16.4725 7.90712L16.3811 7.86656ZM15.9875 6.95487L15.8941 6.99086L15.8957 6.99451L15.9875 6.95487ZM15.6724 6.95319L15.7637 6.99433L15.7652 6.99062L15.6724 6.95319ZM15.2585 7.87085L15.1668 7.91074L15.2569 8.11776L15.3497 7.91197L15.2585 7.87085ZM14.8649 6.96565L14.7731 7.00552L14.7732 7.00553L14.8649 6.96565ZM14.6528 6.88382L14.679 6.98033L14.6791 6.98031L14.6528 6.88382ZM14.5493 7.05134L14.641 7.01146L14.641 7.01144L14.5493 7.05134ZM15.0979 8.31278L15.0062 8.35267L15.0062 8.35269L15.0979 8.31278ZM18.2917 8.40176L18.2913 8.50176H18.2917V8.40176ZM18.1349 8.31278L18.0432 8.35266L18.0432 8.35268L18.1349 8.31278ZM17.5862 7.05134L17.6779 7.01145L17.6779 7.01143L17.5862 7.05134ZM17.6898 6.88382L17.6636 6.78731L17.6636 6.78731L17.6898 6.88382ZM17.9018 6.96564L17.8101 7.00552L17.8101 7.00553L17.9018 6.96564ZM18.2955 7.87085L18.2038 7.91073L18.2938 8.11775L18.3867 7.91196L18.2955 7.87085ZM18.7094 6.95318L18.8006 6.99433L18.8021 6.9906L18.7094 6.95318ZM19.0245 6.95487L18.9311 6.99083L18.9327 6.9945L19.0245 6.95487ZM19.4181 7.86656L19.3263 7.90619L19.4168 8.11597L19.5095 7.90711L19.4181 7.86656ZM19.8187 6.96341L19.7273 6.92285L19.7273 6.92286L19.8187 6.96341ZM20.0314 6.88259L20.0047 6.97896L20.0047 6.97896L20.0314 6.88259ZM20.1337 7.05062L20.0423 7.01006L20.0423 7.01006L20.1337 7.05062ZM19.5734 8.31353L19.6648 8.3541L19.6648 8.35408L19.5734 8.31353ZM19.4153 8.40178L19.4149 8.50178H19.4153V8.40178ZM19.2581 8.31251L19.1663 8.35215L19.1663 8.35215L19.2581 8.31251ZM18.8631 7.3978L18.9549 7.35816L18.8651 7.15015L18.772 7.35669L18.8631 7.3978ZM18.4498 8.31418L18.3587 8.27307L18.3586 8.2731L18.4498 8.31418ZM20.6599 3.6334H20.0765V3.8334H20.6599V3.6334ZM21.6156 4.40956C21.6156 3.96082 21.1637 3.6334 20.6599 3.6334V3.8334C21.0997 3.8334 21.4156 4.11263 21.4156 4.40956H21.6156ZM21.6156 9.92301V4.40956H21.4156V9.92301H21.6156ZM20.6599 10.6992C21.1637 10.6992 21.6156 10.3717 21.6156 9.92301H21.4156C21.4156 10.2199 21.0997 10.4992 20.6599 10.4992V10.6992ZM19.1991 10.6992H20.6599V10.4992H19.1991V10.6992ZM18.9323 10.4673C18.9323 10.6161 19.075 10.6992 19.1991 10.6992V10.4992C19.1738 10.4992 19.1544 10.491 19.1431 10.4821C19.1321 10.4733 19.1323 10.4674 19.1323 10.4673H18.9323ZM19.1991 10.2355C19.075 10.2355 18.9323 10.3186 18.9323 10.4673H19.1323C19.1323 10.4672 19.1321 10.4613 19.1431 10.4526C19.1544 10.4437 19.1738 10.4355 19.1991 10.4355V10.2355ZM20.6599 10.2355H19.1991V10.4355H20.6599V10.2355ZM21.0819 9.92301C21.0819 10.0746 20.9157 10.2355 20.6599 10.2355V10.4355C20.9797 10.4355 21.2819 10.2264 21.2819 9.92301H21.0819ZM21.0819 5.49926V9.92301H21.2819V5.49926H21.0819ZM10.4587 5.59926H21.1819V5.39926H10.4587V5.59926ZM10.5587 6.48575V5.49926H10.3587V6.48575H10.5587ZM10.2919 6.71758C10.416 6.71758 10.5587 6.63447 10.5587 6.48575H10.3587C10.3587 6.48584 10.3589 6.49176 10.3479 6.50051C10.3366 6.50939 10.3171 6.51758 10.2919 6.51758V6.71758ZM10.025 6.48575C10.025 6.63447 10.1677 6.71758 10.2919 6.71758V6.51758C10.2666 6.51758 10.2471 6.50939 10.2359 6.50051C10.2248 6.49176 10.225 6.48584 10.225 6.48575H10.025ZM10.025 4.40956V6.48575H10.225V4.40956H10.025ZM10.9808 3.6334C10.4769 3.6334 10.025 3.96082 10.025 4.40956H10.225C10.225 4.11263 10.5409 3.8334 10.9808 3.8334V3.6334ZM19.3048 3.6334H10.9808V3.8334H19.3048V3.6334ZM19.5717 3.86523C19.5717 3.71651 19.429 3.6334 19.3048 3.6334V3.8334C19.3301 3.8334 19.3495 3.84159 19.3608 3.85047C19.3719 3.85922 19.3717 3.86514 19.3717 3.86523H19.5717ZM19.3048 4.09707C19.429 4.09707 19.5717 4.01396 19.5717 3.86523H19.3717C19.3717 3.86533 19.3719 3.87125 19.3608 3.88C19.3495 3.88888 19.3301 3.89707 19.3048 3.89707V4.09707ZM10.9808 4.09707H19.3048V3.89707H10.9808V4.09707ZM10.5587 4.40956C10.5587 4.25802 10.7249 4.09707 10.9808 4.09707V3.89707C10.6609 3.89707 10.3587 4.10622 10.3587 4.40956H10.5587ZM10.5587 5.23557V4.40956H10.3587V5.23557H10.5587ZM21.1819 5.13557H10.4587V5.33557H21.1819V5.13557ZM21.0819 4.40956V5.23557H21.2819V4.40956H21.0819ZM20.6599 4.09707C20.9157 4.09707 21.0819 4.258 21.0819 4.40956H21.2819C21.2819 4.10619 20.9797 3.89707 20.6599 3.89707V4.09707ZM20.0765 4.09707H20.6599V3.89707H20.0765V4.09707ZM19.8096 3.86523C19.8096 4.01396 19.9523 4.09707 20.0765 4.09707V3.89707C20.0512 3.89707 20.0317 3.88888 20.0205 3.88C20.0094 3.87125 20.0096 3.86533 20.0096 3.86523H19.8096ZM20.0765 3.6334C19.9523 3.6334 19.8096 3.71651 19.8096 3.86523H20.0096C20.0096 3.86514 20.0094 3.85922 20.0205 3.85047C20.0317 3.84159 20.0512 3.8334 20.0765 3.8334V3.6334ZM18.3996 10.2355H16.2546V10.4355H18.3996V10.2355ZM18.6665 10.4674C18.6665 10.3187 18.5238 10.2355 18.3996 10.2355V10.4355C18.4249 10.4355 18.4443 10.4437 18.4556 10.4526C18.4667 10.4613 18.4665 10.4673 18.4665 10.4674H18.6665ZM18.3996 10.6992C18.5238 10.6992 18.6665 10.6161 18.6665 10.4674H18.4665C18.4665 10.4675 18.4667 10.4734 18.4556 10.4822C18.4443 10.491 18.4249 10.4992 18.3996 10.4992V10.6992ZM16.5883 10.6992H18.3996V10.4992H16.5883V10.6992ZM16.6654 10.5327L16.6503 10.5208L16.5263 10.6777L16.5414 10.6896L16.6654 10.5327ZM16.6035 10.5112H16.6034V10.7112H16.6035V10.5112ZM16.6655 11.0004C16.741 10.9407 16.7848 10.8566 16.7848 10.7665C16.7848 10.6764 16.741 10.5924 16.6655 10.5327L16.5415 10.6896C16.5743 10.7156 16.5848 10.7441 16.5848 10.7665C16.5848 10.789 16.5743 10.8175 16.5415 10.8435L16.6655 11.0004ZM16.3108 11.2806L16.6655 11.0004L16.5415 10.8434L16.1868 11.1236L16.3108 11.2806ZM16.0522 11.3663C16.1423 11.3663 16.2363 11.3394 16.3108 11.2806L16.1869 11.1236C16.153 11.1504 16.1045 11.1663 16.0522 11.1663V11.3663ZM15.7936 11.2806C15.8681 11.3395 15.9622 11.3663 16.0522 11.3663V11.1663C15.9998 11.1663 15.9515 11.1504 15.9176 11.1236L15.7936 11.2806ZM15.2203 10.8276L15.7936 11.2806L15.9176 11.1237L15.3443 10.6707L15.2203 10.8276ZM14.7811 11.2726L15.3443 10.8276L15.2203 10.6707L14.6571 11.1156L14.7811 11.2726ZM14.4667 11.3472C14.5771 11.3662 14.6946 11.3409 14.7811 11.2725L14.6571 11.1157C14.6199 11.145 14.5613 11.1606 14.5007 11.1501L14.4667 11.3472ZM14.2079 11.1642C14.2554 11.265 14.3568 11.3283 14.4667 11.3472L14.5007 11.1501C14.4396 11.1396 14.4025 11.1079 14.3889 11.0791L14.2079 11.1642ZM13.9619 10.6418L14.208 11.1642L14.3889 11.079L14.1428 10.5566L13.9619 10.6418ZM10.9808 10.6992H14.0523V10.4992H10.9808V10.6992ZM10.025 9.92303C10.025 10.3718 10.4769 10.6992 10.9808 10.6992V10.4992C10.5409 10.4992 10.225 10.22 10.225 9.92303H10.025ZM10.025 7.07903V9.92303H10.225V7.07903H10.025ZM10.2919 6.84719C10.1677 6.84719 10.025 6.9303 10.025 7.07903H10.225C10.225 7.07893 10.2248 7.07301 10.2359 7.06426C10.2471 7.05538 10.2666 7.04719 10.2919 7.04719V6.84719ZM10.5587 7.07903C10.5587 6.9303 10.416 6.84719 10.2919 6.84719V7.04719C10.3171 7.04719 10.3366 7.05538 10.3479 7.06426C10.3589 7.07301 10.3587 7.07893 10.3587 7.07903H10.5587ZM10.5587 9.92303V7.07903H10.3587V9.92303H10.5587ZM10.9808 10.2355C10.7249 10.2355 10.5587 10.0746 10.5587 9.92303H10.3587C10.3587 10.2264 10.6609 10.4355 10.9808 10.4355V10.2355ZM13.9281 10.2355H10.9808V10.4355H13.9281V10.2355ZM13.1139 8.84152L13.8377 10.3781L14.0186 10.2929L13.2948 8.7563L13.1139 8.84152ZM13.2063 8.48845C13.0972 8.57469 13.053 8.71217 13.1139 8.84153L13.2948 8.75628C13.2789 8.72255 13.2837 8.68221 13.3303 8.64537L13.2063 8.48845ZM13.5902 8.4204C13.4589 8.38179 13.3121 8.40485 13.2063 8.48846L13.3304 8.64536C13.3804 8.60582 13.4586 8.59017 13.5337 8.61227L13.5902 8.4204ZM16.5299 9.28486L13.5902 8.4204L13.5338 8.61228L16.4735 9.47673L16.5299 9.28486ZM16.7588 9.50057C16.7288 9.39197 16.6366 9.31623 16.5299 9.28486L16.4735 9.47674C16.5307 9.49356 16.5587 9.52726 16.566 9.55377L16.7588 9.50057ZM16.6554 9.79163C16.7437 9.72181 16.7898 9.61275 16.7588 9.50057L16.566 9.55377C16.5724 9.57673 16.5667 9.60675 16.5314 9.63473L16.6554 9.79163ZM16.0922 10.2366L16.6554 9.79164L16.5314 9.63472L15.9682 10.0797L16.0922 10.2366ZM16.3166 10.257L16.0922 10.0797L15.9682 10.2366L16.1926 10.414L16.3166 10.257ZM16.1142 10.9061L15.4623 10.3909L15.3383 10.5479L15.9902 11.063L16.1142 10.9061ZM16.2661 10.688L15.9902 10.9061L16.1142 11.063L16.3901 10.845L16.2661 10.688ZM15.6142 10.3299L16.2661 10.845L16.3901 10.688L15.7382 10.1729L15.6142 10.3299ZM15.6142 9.9865C15.5603 10.029 15.5273 10.0905 15.5273 10.1582C15.5273 10.2259 15.5604 10.2874 15.6142 10.3299L15.7382 10.1729C15.7322 10.1682 15.7296 10.1643 15.7285 10.1621C15.7274 10.16 15.7273 10.1587 15.7273 10.1582C15.7273 10.1576 15.7274 10.1564 15.7285 10.1542C15.7296 10.152 15.7323 10.1481 15.7382 10.1434L15.6142 9.9865ZM16.2096 9.51603L15.6142 9.98649L15.7382 10.1434L16.3336 9.67296L16.2096 9.51603ZM13.5313 8.89289L16.2434 9.69043L16.2998 9.49856L13.5877 8.70102L13.5313 8.89289ZM14.6593 10.8973L13.65 8.75434L13.469 8.83957L14.4784 10.9825L14.6593 10.8973ZM15.1023 10.3909L14.5069 10.8614L14.6309 11.0183L15.2263 10.5479L15.1023 10.3909ZM15.2823 10.3308C15.2206 10.3308 15.1551 10.3492 15.1023 10.3909L15.2263 10.5479C15.2386 10.5381 15.2585 10.5308 15.2823 10.5308V10.3308ZM15.4623 10.3909C15.4094 10.3492 15.3439 10.3308 15.2823 10.3308V10.5308C15.306 10.5308 15.326 10.5381 15.3383 10.5479L15.4623 10.3909ZM11.5398 4.76055C11.4011 4.76055 11.3307 4.67532 11.3307 4.61634H11.1307C11.1307 4.82711 11.3371 4.96055 11.5398 4.96055V4.76055ZM11.7488 4.61634C11.7488 4.67532 11.6784 4.76055 11.5398 4.76055V4.96055C11.7424 4.96055 11.9488 4.82711 11.9488 4.61634H11.7488ZM11.5398 4.47214C11.6784 4.47214 11.7488 4.55737 11.7488 4.61634H11.9488C11.9488 4.40556 11.7424 4.27214 11.5398 4.27214V4.47214ZM11.3307 4.61634C11.3307 4.55737 11.4011 4.47214 11.5398 4.47214V4.27214C11.3371 4.27214 11.1307 4.40556 11.1307 4.61634H11.3307ZM12.0814 4.61634C12.0814 4.82711 12.2878 4.96055 12.4905 4.96055V4.76055C12.3518 4.76055 12.2814 4.67532 12.2814 4.61634H12.0814ZM12.4905 4.27214C12.2878 4.27214 12.0814 4.40556 12.0814 4.61634H12.2814C12.2814 4.55737 12.3518 4.47214 12.4905 4.47214V4.27214ZM12.8995 4.61634C12.8995 4.40556 12.6931 4.27214 12.4905 4.27214V4.47214C12.6292 4.47214 12.6995 4.55737 12.6995 4.61634H12.8995ZM12.4905 4.96055C12.6931 4.96055 12.8995 4.82711 12.8995 4.61634H12.6995C12.6995 4.67532 12.6291 4.76055 12.4905 4.76055V4.96055ZM13.4412 4.76055C13.3025 4.76055 13.2321 4.67532 13.2321 4.61634H13.0321C13.0321 4.82711 13.2385 4.96055 13.4412 4.96055V4.76055ZM13.6502 4.61634C13.6502 4.67532 13.5798 4.76055 13.4412 4.76055V4.96055C13.6438 4.96055 13.8502 4.82711 13.8502 4.61634H13.6502ZM13.4412 4.47214C13.5799 4.47214 13.6502 4.55737 13.6502 4.61634H13.8502C13.8502 4.40556 13.6438 4.27214 13.4412 4.27214V4.47214ZM13.2321 4.61634C13.2321 4.55737 13.3025 4.47214 13.4412 4.47214V4.27214C13.2385 4.27214 13.0321 4.40556 13.0321 4.61634H13.2321ZM12.1676 8.50176H12.1685V8.30176H12.1676V8.50176ZM11.919 8.35262C11.9618 8.45119 12.0677 8.50129 12.1671 8.50176L12.168 8.30176C12.1256 8.30156 12.1056 8.28029 12.1024 8.2729L11.919 8.35262ZM11.3704 7.0912L11.919 8.35264L12.1024 8.27288L11.5538 7.01144L11.3704 7.0912ZM11.5394 6.78729C11.4749 6.80482 11.4188 6.84324 11.3849 6.89802C11.3502 6.95418 11.3414 7.02461 11.3704 7.09123L11.5538 7.01141C11.5529 7.0093 11.553 7.00841 11.553 7.00815C11.553 7.0077 11.5533 7.00603 11.555 7.0032C11.5586 6.99736 11.5693 6.98644 11.5919 6.98031L11.5394 6.78729ZM11.8694 6.92575C11.8143 6.79916 11.6604 6.75435 11.5394 6.78731L11.5919 6.98029C11.6452 6.96579 11.6811 6.99435 11.686 7.0055L11.8694 6.92575ZM12.2631 7.83096L11.8694 6.92574L11.686 7.00551L12.0797 7.91073L12.2631 7.83096ZM12.4941 6.91207L12.0802 7.82973L12.2625 7.91196L12.6764 6.99429L12.4941 6.91207ZM12.9937 6.91892C12.95 6.80568 12.8308 6.76781 12.744 6.76736C12.6571 6.76692 12.5378 6.80356 12.4925 6.91575L12.678 6.99061C12.6787 6.98894 12.6814 6.98363 12.693 6.97775C12.7051 6.97164 12.7227 6.96726 12.743 6.96736C12.7632 6.96746 12.7808 6.97203 12.7926 6.9782C12.804 6.98412 12.8064 6.9893 12.807 6.99081L12.9937 6.91892ZM13.3857 7.82692L12.9921 6.91523L12.8085 6.9945L13.2021 7.90619L13.3857 7.82692ZM13.6032 6.92286L13.2025 7.826L13.3853 7.90711L13.786 7.00396L13.6032 6.92286ZM13.934 6.78622C13.8132 6.75275 13.6591 6.7968 13.6032 6.92285L13.786 7.00397C13.7911 6.99256 13.8276 6.96426 13.8806 6.97895L13.934 6.78622ZM14.101 7.09117C14.1304 7.02481 14.1222 6.95432 14.0879 6.89788C14.0544 6.84282 13.9984 6.80408 13.934 6.78622L13.8806 6.97896C13.9031 6.98519 13.9135 6.99612 13.917 7.00187C13.9187 7.00466 13.919 7.0063 13.919 7.00673C13.919 7.00699 13.9191 7.00791 13.9182 7.01006L14.101 7.09117ZM13.5407 8.35408L14.101 7.09117L13.9182 7.01006L13.3579 8.27298L13.5407 8.35408ZM13.2918 8.50178C13.3912 8.50178 13.4971 8.45219 13.5407 8.3541L13.3579 8.27296C13.3545 8.28063 13.3341 8.30178 13.2918 8.30178V8.50178ZM13.2911 8.50178H13.2918V8.30178H13.2911V8.50178ZM13.0421 8.35215C13.0848 8.45114 13.1911 8.50143 13.2908 8.50177L13.2915 8.30178C13.2489 8.30163 13.2289 8.28023 13.2257 8.27287L13.0421 8.35215ZM12.6472 7.43744L13.0421 8.35215L13.2257 8.27287L12.8308 7.35816L12.6472 7.43744ZM12.4168 8.3553L12.8301 7.43892L12.6478 7.35669L12.2345 8.27307L12.4168 8.3553ZM12.1685 8.50176C12.2675 8.50176 12.373 8.45263 12.4168 8.35527L12.2345 8.2731C12.231 8.28078 12.2106 8.30176 12.1685 8.30176V8.50176ZM15.2557 8.30176H15.2547V8.50176H15.2557V8.30176ZM15.3217 8.2731C15.3182 8.28079 15.2978 8.30176 15.2557 8.30176V8.50176C15.3546 8.50176 15.4601 8.45264 15.504 8.35528L15.3217 8.2731ZM15.735 7.35669L15.3217 8.27308L15.504 8.3553L15.9173 7.43892L15.735 7.35669ZM16.3129 8.27288L15.918 7.35817L15.7344 7.43745L16.1293 8.35216L16.3129 8.27288ZM16.3787 8.30178C16.3361 8.30164 16.3161 8.28024 16.3129 8.27288L16.1293 8.35216C16.172 8.45115 16.2783 8.50144 16.378 8.50178L16.3787 8.30178ZM16.379 8.30178H16.3783V8.50178H16.379V8.30178ZM16.4451 8.27297C16.4417 8.28064 16.4213 8.30178 16.379 8.30178V8.50178C16.4784 8.50178 16.5843 8.45219 16.6279 8.35411L16.4451 8.27297ZM17.0053 7.01007L16.4451 8.27299L16.6279 8.35409L17.1882 7.09117L17.0053 7.01007ZM16.9678 6.97896C16.9903 6.9852 17.0007 6.99612 17.0042 7.00188C17.0059 7.00467 17.0061 7.0063 17.0062 7.00674C17.0062 7.00699 17.0063 7.00791 17.0053 7.01007L17.1882 7.09118C17.2176 7.02481 17.2094 6.95433 17.1751 6.89789C17.1416 6.84283 17.0856 6.80409 17.0212 6.78622L16.9678 6.97896ZM16.8732 7.00398C16.8783 6.99256 16.9147 6.96427 16.9677 6.97896L17.0212 6.78622C16.9004 6.75275 16.7463 6.79681 16.6904 6.92285L16.8732 7.00398ZM16.4725 7.90712L16.8732 7.00397L16.6904 6.92286L16.2897 7.82601L16.4725 7.90712ZM15.8957 6.99451L16.2893 7.9062L16.4729 7.82693L16.0793 6.91524L15.8957 6.99451ZM15.7652 6.99062C15.7658 6.98894 15.7686 6.98363 15.7802 6.97775C15.7922 6.97164 15.8099 6.96726 15.8302 6.96736C15.8504 6.96746 15.8679 6.97203 15.8798 6.9782C15.8911 6.98412 15.8936 6.9893 15.8942 6.99083L16.0808 6.91892C16.0372 6.80568 15.918 6.7678 15.8312 6.76736C15.7443 6.76692 15.625 6.80357 15.5797 6.91575L15.7652 6.99062ZM15.3497 7.91197L15.7636 6.9943L15.5813 6.91207L15.1674 7.82974L15.3497 7.91197ZM14.7732 7.00553L15.1668 7.91074L15.3502 7.83097L14.9566 6.92577L14.7732 7.00553ZM14.6791 6.98031C14.7323 6.96581 14.7683 6.99438 14.7731 7.00552L14.9566 6.92578C14.9015 6.79918 14.7476 6.75437 14.6266 6.78734L14.6791 6.98031ZM14.641 7.01144C14.64 7.00933 14.6402 7.00843 14.6402 7.00817C14.6402 7.00772 14.6404 7.00605 14.6422 7.00322C14.6458 6.99738 14.6564 6.98646 14.679 6.98033L14.6266 6.78732C14.5621 6.80484 14.506 6.84326 14.4721 6.89805C14.4374 6.9542 14.4286 7.02463 14.4576 7.09125L14.641 7.01144ZM15.1896 8.2729L14.641 7.01146L14.4576 7.09123L15.0062 8.35267L15.1896 8.2729ZM15.2552 8.30177C15.2128 8.30157 15.1928 8.2803 15.1896 8.27288L15.0062 8.35269C15.0491 8.45119 15.1549 8.5013 15.2543 8.50176L15.2552 8.30177ZM18.2917 8.50176H18.2927V8.30176H18.2917V8.50176ZM18.0432 8.35268C18.086 8.45119 18.1918 8.50129 18.2913 8.50176L18.2922 8.30176C18.2498 8.30156 18.2298 8.28029 18.2266 8.27287L18.0432 8.35268ZM17.4945 7.09122L18.0432 8.35266L18.2266 8.27289L17.6779 7.01145L17.4945 7.09122ZM17.6636 6.78731C17.599 6.80484 17.5429 6.84325 17.509 6.89804C17.4743 6.95419 17.4655 7.02462 17.4945 7.09124L17.6779 7.01143C17.677 7.00932 17.6771 7.00842 17.6771 7.00816C17.6772 7.00772 17.6774 7.00604 17.6791 7.00322C17.6828 6.99737 17.6934 6.98646 17.716 6.98032L17.6636 6.78731ZM17.9935 6.92576C17.9385 6.79919 17.7847 6.75443 17.6636 6.78731L17.716 6.98032C17.7694 6.96582 17.8053 6.99439 17.8101 7.00552L17.9935 6.92576ZM18.3872 7.83096L17.9935 6.92576L17.8101 7.00553L18.2038 7.91073L18.3872 7.83096ZM18.6182 6.91207L18.2044 7.82973L18.3867 7.91196L18.8006 6.99429L18.6182 6.91207ZM19.1178 6.91894C19.0742 6.80567 18.955 6.76781 18.8682 6.76736C18.7813 6.76692 18.6619 6.80355 18.6167 6.91576L18.8021 6.9906C18.8028 6.98893 18.8055 6.98363 18.8171 6.97775C18.8292 6.97164 18.8469 6.96726 18.8671 6.96736C18.8874 6.96746 18.9049 6.97203 18.9168 6.9782C18.9281 6.98412 18.9306 6.98929 18.9312 6.9908L19.1178 6.91894ZM19.5099 7.82692L19.1163 6.91523L18.9327 6.9945L19.3263 7.90619L19.5099 7.82692ZM19.7273 6.92286L19.3267 7.82601L19.5095 7.90711L19.9101 7.00396L19.7273 6.92286ZM20.0581 6.78622C19.9373 6.75275 19.7833 6.79681 19.7273 6.92285L19.9101 7.00397C19.9152 6.99255 19.9517 6.96426 20.0047 6.97896L20.0581 6.78622ZM20.2251 7.09117C20.2545 7.02481 20.2464 6.95432 20.212 6.89788C20.1785 6.84282 20.1226 6.80408 20.0581 6.78622L20.0047 6.97896C20.0272 6.98519 20.0377 6.99612 20.0412 7.00187C20.0429 7.00466 20.0431 7.0063 20.0431 7.00673C20.0431 7.00698 20.0432 7.00791 20.0423 7.01006L20.2251 7.09117ZM19.6648 8.35408L20.2251 7.09117L20.0423 7.01006L19.482 8.27298L19.6648 8.35408ZM19.416 8.50178C19.5154 8.50178 19.6213 8.45219 19.6648 8.3541L19.482 8.27296C19.4786 8.28063 19.4583 8.30178 19.416 8.30178V8.50178ZM19.4153 8.50178H19.416V8.30178H19.4153V8.50178ZM19.1663 8.35215C19.209 8.45114 19.3152 8.50143 19.4149 8.50177L19.4156 8.30178C19.3731 8.30163 19.353 8.28023 19.3499 8.27287L19.1663 8.35215ZM18.7713 7.43744L19.1663 8.35215L19.3499 8.27287L18.9549 7.35816L18.7713 7.43744ZM18.541 8.3553L18.9543 7.43892L18.772 7.35669L18.3587 8.27307L18.541 8.3553ZM18.2927 8.50176C18.3916 8.50176 18.4971 8.45263 18.541 8.35527L18.3586 8.2731C18.3552 8.28078 18.3348 8.30176 18.2927 8.30176V8.50176Z" fill="white" mask="url(#path-2-outside-1_622_5)"/>
</g>
<rect x="0.25" y="0.25" width="80.5" height="13.5" rx="6.75" stroke="#6A00A7" stroke-width="0.5"/>
<defs>
<clipPath id="clip0_622_5">
<rect width="11.3906" height="9" fill="white" transform="translate(10.125 3)"/>
</clipPath>
</defs>
</svg>
